<?xml version="1.0" encoding="us-ascii" standalone="no"?><svg xmlns="http://www.w3.org/2000/svg" xmlns:xlink="http://www.w3.org/1999/xlink" contentStyleType="text/css" height="830px" preserveAspectRatio="none" style="width:1393px;height:830px;background:#FFFFFF;" version="1.1" viewBox="0 0 1393 830" width="1393px" zoomAndPan="magnify"><defs/><g><text fill="#000000" font-family="sans-serif" font-size="14" font-weight="bold" lengthAdjust="spacing" textLength="437" x="477" y="30.1074">As Librarian I want to register an author with an optional photo</text><rect fill="#FFFFFF" height="695.1895" style="stroke:#181818;stroke-width:1.0;" width="10" x="45" y="88.2422"/><rect fill="#FFFFFF" height="662.8984" style="stroke:#181818;stroke-width:1.0;" width="10" x="240" y="111.5332"/><rect fill="#FFFFFF" height="42.291" style="stroke:#181818;stroke-width:1.0;" width="10" x="245" y="693.8496"/><rect fill="#FFFFFF" height="474.4434" style="stroke:#181818;stroke-width:1.0;" width="10" x="486" y="180.1152"/><rect fill="#FFFFFF" height="572.0254" style="stroke:#181818;stroke-width:1.0;" width="10" x="839" y="211.4063"/><rect fill="#FFFFFF" height="98.873" style="stroke:#181818;stroke-width:1.0;" width="10" x="844" y="480.7734"/><rect fill="#FFFFFF" height="31.291" style="stroke:#181818;stroke-width:1.0;" width="10" x="975" y="517.0645"/><rect fill="#FFFFFF" height="31.291" style="stroke:#181818;stroke-width:1.0;" width="10" x="1112.5" y="348.9004"/><rect fill="#FFFFFF" height="31.291" style="stroke:#181818;stroke-width:1.0;" width="10" x="1252" y="242.6973"/><rect fill="#FFFFFF" height="30" style="stroke:#181818;stroke-width:1.0;" width="10" x="1354" y="411.4824"/><line style="stroke:#181818;stroke-width:0.5;stroke-dasharray:5.0,5.0;" x1="50" x2="50" y1="78.2422" y2="792.4316"/><line style="stroke:#181818;stroke-width:0.5;stroke-dasharray:5.0,5.0;" x1="244.5" x2="244.5" y1="78.2422" y2="792.4316"/><line style="stroke:#181818;stroke-width:0.5;stroke-dasharray:5.0,5.0;" x1="491" x2="491" y1="78.2422" y2="792.4316"/><line style="stroke:#181818;stroke-width:0.5;stroke-dasharray:5.0,5.0;" x1="711" x2="711" y1="619.457" y2="792.4316"/><line style="stroke:#181818;stroke-width:0.5;stroke-dasharray:5.0,5.0;" x1="844" x2="844" y1="78.2422" y2="792.4316"/><line style="stroke:#181818;stroke-width:0.5;stroke-dasharray:5.0,5.0;" x1="980" x2="980" y1="78.2422" y2="792.4316"/><line style="stroke:#181818;stroke-width:0.5;stroke-dasharray:5.0,5.0;" x1="1117" x2="1117" y1="78.2422" y2="792.4316"/><line style="stroke:#181818;stroke-width:0.5;stroke-dasharray:5.0,5.0;" x1="1257" x2="1257" y1="78.2422" y2="792.4316"/><line style="stroke:#181818;stroke-width:0.5;stroke-dasharray:5.0,5.0;" x1="1359" x2="1359" y1="313.7988" y2="792.4316"/><rect fill="#E2E2F0" height="32.6211" rx="2.5" ry="2.5" style="stroke:#181818;stroke-width:0.5;" width="90" x="5" y="44.6211"/><text fill="#000000" font-family="sans-serif" font-size="14" lengthAdjust="spacing" textLength="76" x="12" y="66.7285">:HTTPClient</text><rect fill="#E2E2F0" height="32.6211" rx="2.5" ry="2.5" style="stroke:#181818;stroke-width:0.5;" width="90" x="5" y="791.4316"/><text fill="#000000" font-family="sans-serif" font-size="14" lengthAdjust="spacing" textLength="76" x="12" y="813.5391">:HTTPClient</text><rect fill="#E2E2F0" height="32.6211" rx="2.5" ry="2.5" style="stroke:#181818;stroke-width:0.5;" width="153" x="168.5" y="44.6211"/><text fill="#000000" font-family="sans-serif" font-size="14" lengthAdjust="spacing" textLength="139" x="175.5" y="66.7285">handler:RouteHandler</text><rect fill="#E2E2F0" height="32.6211" rx="2.5" ry="2.5" style="stroke:#181818;stroke-width:0.5;" width="153" x="168.5" y="791.4316"/><text fill="#000000" font-family="sans-serif" font-size="14" lengthAdjust="spacing" textLength="139" x="175.5" y="813.5391">handler:RouteHandler</text><rect fill="#E2E2F0" height="32.6211" rx="2.5" ry="2.5" style="stroke:#181818;stroke-width:0.5;" width="118" x="432" y="44.6211"/><text fill="#000000" font-family="sans-serif" font-size="14" lengthAdjust="spacing" textLength="104" x="439" y="66.7285">AuthorController</text><rect fill="#E2E2F0" height="32.6211" rx="2.5" ry="2.5" style="stroke:#181818;stroke-width:0.5;" width="118" x="432" y="791.4316"/><text fill="#000000" font-family="sans-serif" font-size="14" lengthAdjust="spacing" textLength="104" x="439" y="813.5391">AuthorController</text><rect fill="#E2E2F0" height="32.6211" rx="2.5" ry="2.5" style="stroke:#181818;stroke-width:0.5;" width="118" x="652" y="791.4316"/><text fill="#000000" font-family="sans-serif" font-size="14" lengthAdjust="spacing" textLength="104" x="659" y="813.5391">result:HttpResult</text><rect fill="#E2E2F0" height="32.6211" rx="2.5" ry="2.5" style="stroke:#181818;stroke-width:0.5;" width="128" x="780" y="44.6211"/><text fill="#000000" font-family="sans-serif" font-size="14" lengthAdjust="spacing" textLength="114" x="787" y="66.7285">AuthorServiceImpl</text><rect fill="#E2E2F0" height="32.6211" rx="2.5" ry="2.5" style="stroke:#181818;stroke-width:0.5;" width="128" x="780" y="791.4316"/><text fill="#000000" font-family="sans-serif" font-size="14" lengthAdjust="spacing" textLength="114" x="787" y="813.5391">AuthorServiceImpl</text><rect fill="#E2E2F0" height="32.6211" rx="2.5" ry="2.5" style="stroke:#181818;stroke-width:0.5;" width="124" x="918" y="44.6211"/><text fill="#000000" font-family="sans-serif" font-size="14" lengthAdjust="spacing" textLength="110" x="925" y="66.7285">AuthorRepository</text><rect fill="#E2E2F0" height="32.6211" rx="2.5" ry="2.5" style="stroke:#181818;stroke-width:0.5;" width="124" x="918" y="791.4316"/><text fill="#000000" font-family="sans-serif" font-size="14" lengthAdjust="spacing" textLength="110" x="925" y="813.5391">AuthorRepository</text><rect fill="#E2E2F0" height="32.6211" rx="2.5" ry="2.5" style="stroke:#181818;stroke-width:0.5;" width="131" x="1052" y="44.6211"/><text fill="#000000" font-family="sans-serif" font-size="14" lengthAdjust="spacing" textLength="117" x="1059" y="66.7285">photo:MultipartFile</text><rect fill="#E2E2F0" height="32.6211" rx="2.5" ry="2.5" style="stroke:#181818;stroke-width:0.5;" width="131" x="1052" y="791.4316"/><text fill="#000000" font-family="sans-serif" font-size="14" lengthAdjust="spacing" textLength="117" x="1059" y="813.5391">photo:MultipartFile</text><rect fill="#E2E2F0" height="32.6211" rx="2.5" ry="2.5" style="stroke:#181818;stroke-width:0.5;" width="128" x="1193" y="44.6211"/><text fill="#000000" font-family="sans-serif" font-size="14" lengthAdjust="spacing" textLength="114" x="1200" y="66.7285">AuthorEditMapper</text><rect fill="#E2E2F0" height="32.6211" rx="2.5" ry="2.5" style="stroke:#181818;stroke-width:0.5;" width="128" x="1193" y="791.4316"/><text fill="#000000" font-family="sans-serif" font-size="14" lengthAdjust="spacing" textLength="114" x="1200" y="813.5391">AuthorEditMapper</text><rect fill="#E2E2F0" height="32.6211" rx="2.5" ry="2.5" style="stroke:#181818;stroke-width:0.5;" width="56" x="1331" y="791.4316"/><text fill="#000000" font-family="sans-serif" font-size="14" lengthAdjust="spacing" textLength="42" x="1338" y="813.5391">Author</text><rect fill="#FFFFFF" height="695.1895" style="stroke:#181818;stroke-width:1.0;" width="10" x="45" y="88.2422"/><rect fill="#FFFFFF" height="662.8984" style="stroke:#181818;stroke-width:1.0;" width="10" x="240" y="111.5332"/><rect fill="#FFFFFF" height="42.291" style="stroke:#181818;stroke-width:1.0;" width="10" x="245" y="693.8496"/><rect fill="#FFFFFF" height="474.4434" style="stroke:#181818;stroke-width:1.0;" width="10" x="486" y="180.1152"/><rect fill="#FFFFFF" height="572.0254" style="stroke:#181818;stroke-width:1.0;" width="10" x="839" y="211.4063"/><rect fill="#FFFFFF" height="98.873" style="stroke:#181818;stroke-width:1.0;" width="10" x="844" y="480.7734"/><rect fill="#FFFFFF" height="31.291" style="stroke:#181818;stroke-width:1.0;" width="10" x="975" y="517.0645"/><rect fill="#FFFFFF" height="31.291" style="stroke:#181818;stroke-width:1.0;" width="10" x="1112.5" y="348.9004"/><rect fill="#FFFFFF" height="31.291" style="stroke:#181818;stroke-width:1.0;" width="10" x="1252" y="242.6973"/><rect fill="#FFFFFF" height="30" style="stroke:#181818;stroke-width:1.0;" width="10" x="1354" y="411.4824"/><polygon fill="#181818" points="228,107.5332,238,111.5332,228,115.5332,232,111.5332" style="stroke:#181818;stroke-width:1.0;"/><line style="stroke:#181818;stroke-width:1.0;" x1="55" x2="234" y1="111.5332" y2="111.5332"/><text fill="#000000" font-family="sans-serif" font-size="13" font-weight="bold" lengthAdjust="spacing" textLength="7" x="62" y="106.2705">1</text><text fill="#000000" font-family="sans-serif" font-size="13" lengthAdjust="spacing" textLength="155" x="73" y="106.2705">POST/authors(data, photo)</text><path d="M172,124.5332 L172,151.5332 L317,151.5332 L317,134.5332 L307,124.5332 L172,124.5332 " fill="#FEFFDD" style="stroke:#181818;stroke-width:0.5;"/><path d="M307,124.5332 L307,134.5332 L317,134.5332 L307,124.5332 " fill="#FEFFDD" style="stroke:#181818;stroke-width:0.5;"/><text fill="#000000" font-family="sans-serif" font-size="13" lengthAdjust="spacing" textLength="124" x="178" y="143.5615">after doing some stuff</text><polygon fill="#181818" points="474,176.1152,484,180.1152,474,184.1152,478,180.1152" style="stroke:#181818;stroke-width:1.0;"/><line style="stroke:#181818;stroke-width:1.0;" x1="250" x2="480" y1="180.1152" y2="180.1152"/><text fill="#000000" font-family="sans-serif" font-size="13" font-weight="bold" lengthAdjust="spacing" textLength="7" x="257" y="174.8525">2</text><text fill="#000000" font-family="sans-serif" font-size="13" lengthAdjust="spacing" textLength="206" x="268" y="174.8525">postAuthors(name, shortBio, photo)</text><polygon fill="#181818" points="827,207.4063,837,211.4063,827,215.4063,831,211.4063" style="stroke:#181818;stroke-width:1.0;"/><line style="stroke:#181818;stroke-width:1.0;" x1="496" x2="833" y1="211.4063" y2="211.4063"/><text fill="#000000" font-family="sans-serif" font-size="13" font-weight="bold" lengthAdjust="spacing" textLength="7" x="503" y="206.1436">3</text><text fill="#000000" font-family="sans-serif" font-size="13" lengthAdjust="spacing" textLength="210" x="514" y="206.1436">createAuthor(name, shortBio, photo)</text><polygon fill="#181818" points="1240,238.6973,1250,242.6973,1240,246.6973,1244,242.6973" style="stroke:#181818;stroke-width:1.0;"/><line style="stroke:#181818;stroke-width:1.0;" x1="849" x2="1246" y1="242.6973" y2="242.6973"/><text fill="#000000" font-family="sans-serif" font-size="13" font-weight="bold" lengthAdjust="spacing" textLength="7" x="856" y="237.4346">4</text><text fill="#000000" font-family="sans-serif" font-size="13" lengthAdjust="spacing" textLength="76" x="867" y="237.4346">map(request)</text><polygon fill="#181818" points="860,269.9883,850,273.9883,860,277.9883,856,273.9883" style="stroke:#181818;stroke-width:1.0;"/><line style="stroke:#181818;stroke-width:1.0;stroke-dasharray:2.0,2.0;" x1="854" x2="1256" y1="273.9883" y2="273.9883"/><text fill="#000000" font-family="sans-serif" font-size="13" font-weight="bold" lengthAdjust="spacing" textLength="7" x="866" y="268.7256">5</text><text fill="#000000" font-family="sans-serif" font-size="13" lengthAdjust="spacing" textLength="38" x="877" y="268.7256">Author</text><polygon fill="#181818" points="1319,301.2793,1329,305.2793,1319,309.2793,1323,305.2793" style="stroke:#181818;stroke-width:1.0;"/><line style="stroke:#181818;stroke-width:1.0;stroke-dasharray:2.0,2.0;" x1="849" x2="1325" y1="305.2793" y2="305.2793"/><text fill="#000000" font-family="sans-serif" font-size="13" font-weight="bold" lengthAdjust="spacing" textLength="7" x="856" y="300.0166">6</text><text fill="#000000" font-family="sans-serif" font-size="13" lengthAdjust="spacing" textLength="170" x="867" y="300.0166">createAuthor(name, shortBio)</text><rect fill="#E2E2F0" height="32.6211" rx="2.5" ry="2.5" style="stroke:#181818;stroke-width:0.5;" width="56" x="1331" y="281.9883"/><text fill="#000000" font-family="sans-serif" font-size="14" lengthAdjust="spacing" textLength="42" x="1338" y="304.0957">Author</text><polygon fill="#181818" points="1100.5,344.9004,1110.5,348.9004,1100.5,352.9004,1104.5,348.9004" style="stroke:#181818;stroke-width:1.0;"/><line style="stroke:#181818;stroke-width:1.0;" x1="849" x2="1106.5" y1="348.9004" y2="348.9004"/><text fill="#000000" font-family="sans-serif" font-size="13" font-weight="bold" lengthAdjust="spacing" textLength="7" x="856" y="343.6377">7</text><text fill="#000000" font-family="sans-serif" font-size="13" lengthAdjust="spacing" textLength="154" x="867" y="343.6377">savePhoto(photo, authorId)</text><polygon fill="#181818" points="860,376.1914,850,380.1914,860,384.1914,856,380.1914" style="stroke:#181818;stroke-width:1.0;"/><line style="stroke:#181818;stroke-width:1.0;stroke-dasharray:2.0,2.0;" x1="854" x2="1116.5" y1="380.1914" y2="380.1914"/><text fill="#000000" font-family="sans-serif" font-size="13" font-weight="bold" lengthAdjust="spacing" textLength="7" x="866" y="374.9287">8</text><text fill="#000000" font-family="sans-serif" font-size="13" lengthAdjust="spacing" textLength="90" x="877" y="374.9287">photoResponse</text><polygon fill="#181818" points="1342,407.4824,1352,411.4824,1342,415.4824,1346,411.4824" style="stroke:#181818;stroke-width:1.0;"/><line style="stroke:#181818;stroke-width:1.0;" x1="849" x2="1348" y1="411.4824" y2="411.4824"/><text fill="#000000" font-family="sans-serif" font-size="13" font-weight="bold" lengthAdjust="spacing" textLength="7" x="856" y="406.2197">9</text><text fill="#000000" font-family="sans-serif" font-size="13" lengthAdjust="spacing" textLength="381" x="867" y="406.2197">setPhotoPath(photoResponse) and setPhotoURL(photoResponse)</text><line style="stroke:#181818;stroke-width:1.0;" x1="849" x2="896" y1="467.7734" y2="467.7734"/><line style="stroke:#181818;stroke-width:1.0;" x1="896" x2="896" y1="467.7734" y2="480.7734"/><line style="stroke:#181818;stroke-width:1.0;" x1="855" x2="896" y1="480.7734" y2="480.7734"/><polygon fill="#181818" points="865,476.7734,855,480.7734,865,484.7734,861,480.7734" style="stroke:#181818;stroke-width:1.0;"/><text fill="#000000" font-family="sans-serif" font-size="13" font-weight="bold" lengthAdjust="spacing" textLength="14" x="861" y="462.5107">10</text><text fill="#000000" font-family="sans-serif" font-size="13" lengthAdjust="spacing" textLength="69" x="879" y="462.5107">validate(aut)</text><polygon fill="#181818" points="963,513.0645,973,517.0645,963,521.0645,967,517.0645" style="stroke:#181818;stroke-width:1.0;"/><line style="stroke:#181818;stroke-width:1.0;" x1="854" x2="969" y1="517.0645" y2="517.0645"/><text fill="#000000" font-family="sans-serif" font-size="13" font-weight="bold" lengthAdjust="spacing" textLength="14" x="861" y="511.8018">11</text><text fill="#000000" font-family="sans-serif" font-size="13" lengthAdjust="spacing" textLength="52" x="879" y="511.8018">save(aut)</text><polygon fill="#181818" points="865,544.3555,855,548.3555,865,552.3555,861,548.3555" style="stroke:#181818;stroke-width:1.0;"/><line style="stroke:#181818;stroke-width:1.0;stroke-dasharray:2.0,2.0;" x1="859" x2="979" y1="548.3555" y2="548.3555"/><text fill="#000000" font-family="sans-serif" font-size="13" font-weight="bold" lengthAdjust="spacing" textLength="14" x="871" y="543.0928">12</text><text fill="#000000" font-family="sans-serif" font-size="13" lengthAdjust="spacing" textLength="14" x="889" y="543.0928">ok</text><polygon fill="#181818" points="507,575.6465,497,579.6465,507,583.6465,503,579.6465" style="stroke:#181818;stroke-width:1.0;"/><line style="stroke:#181818;stroke-width:1.0;stroke-dasharray:2.0,2.0;" x1="501" x2="838" y1="579.6465" y2="579.6465"/><text fill="#000000" font-family="sans-serif" font-size="13" font-weight="bold" lengthAdjust="spacing" textLength="14" x="513" y="574.3838">13</text><text fill="#000000" font-family="sans-serif" font-size="13" lengthAdjust="spacing" textLength="14" x="531" y="574.3838">ok</text><polygon fill="#181818" points="640,606.9375,650,610.9375,640,614.9375,644,610.9375" style="stroke:#181818;stroke-width:1.0;"/><line style="stroke:#181818;stroke-width:1.0;stroke-dasharray:2.0,2.0;" x1="496" x2="646" y1="610.9375" y2="610.9375"/><text fill="#000000" font-family="sans-serif" font-size="13" font-weight="bold" lengthAdjust="spacing" textLength="14" x="503" y="605.6748">14</text><text fill="#000000" font-family="sans-serif" font-size="13" lengthAdjust="spacing" textLength="114" x="521" y="605.6748">create(201 Created)</text><rect fill="#E2E2F0" height="32.6211" rx="2.5" ry="2.5" style="stroke:#181818;stroke-width:0.5;" width="118" x="652" y="587.6465"/><text fill="#000000" font-family="sans-serif" font-size="14" lengthAdjust="spacing" textLength="104" x="659" y="609.7539">result:HttpResult</text><polygon fill="#181818" points="261,650.5586,251,654.5586,261,658.5586,257,654.5586" style="stroke:#181818;stroke-width:1.0;"/><line style="stroke:#181818;stroke-width:1.0;stroke-dasharray:2.0,2.0;" x1="255" x2="490" y1="654.5586" y2="654.5586"/><text fill="#000000" font-family="sans-serif" font-size="13" font-weight="bold" lengthAdjust="spacing" textLength="14" x="267" y="649.2959">15</text><text fill="#000000" font-family="sans-serif" font-size="13" lengthAdjust="spacing" textLength="32" x="285" y="649.2959">result</text><line style="stroke:#181818;stroke-width:1.0;" x1="250" x2="297" y1="680.8496" y2="680.8496"/><line style="stroke:#181818;stroke-width:1.0;" x1="297" x2="297" y1="680.8496" y2="693.8496"/><line style="stroke:#181818;stroke-width:1.0;" x1="256" x2="297" y1="693.8496" y2="693.8496"/><polygon fill="#181818" points="266,689.8496,256,693.8496,266,697.8496,262,693.8496" style="stroke:#181818;stroke-width:1.0;"/><text fill="#000000" font-family="sans-serif" font-size="13" font-weight="bold" lengthAdjust="spacing" textLength="14" x="262" y="675.5869">16</text><text fill="#000000" font-family="sans-serif" font-size="13" lengthAdjust="spacing" textLength="152" x="280" y="675.5869">setHttpResult(resp, result)</text><line style="stroke:#181818;stroke-width:1.0;stroke-dasharray:2.0,2.0;" x1="255" x2="297" y1="735.1406" y2="735.1406"/><line style="stroke:#181818;stroke-width:1.0;stroke-dasharray:2.0,2.0;" x1="297" x2="297" y1="735.1406" y2="748.1406"/><line style="stroke:#181818;stroke-width:1.0;stroke-dasharray:2.0,2.0;" x1="250" x2="297" y1="748.1406" y2="748.1406"/><polygon fill="#181818" points="260,744.1406,250,748.1406,260,752.1406,256,748.1406" style="stroke:#181818;stroke-width:1.0;"/><text fill="#000000" font-family="sans-serif" font-size="13" font-weight="bold" lengthAdjust="spacing" textLength="14" x="262" y="729.8779">17</text><text fill="#000000" font-family="sans-serif" font-size="13" lengthAdjust="spacing" textLength="4" x="280" y="729.8779">&#160;</text><polygon fill="#181818" points="66,770.4316,56,774.4316,66,778.4316,62,774.4316" style="stroke:#181818;stroke-width:1.0;"/><line style="stroke:#181818;stroke-width:1.0;stroke-dasharray:2.0,2.0;" x1="60" x2="244" y1="774.4316" y2="774.4316"/><text fill="#000000" font-family="sans-serif" font-size="13" font-weight="bold" lengthAdjust="spacing" textLength="14" x="72" y="769.1689">18</text><text fill="#000000" font-family="sans-serif" font-size="13" lengthAdjust="spacing" textLength="25" x="90" y="769.1689">resp</text><!--SRC=[VLF9Rjim4BtpAmO-IO63BaST2hX62nj8KCDsFu2nnX5HYMJ9aOByVOUaBCcoqziiRzxifAX6MAmyFAaN9vsI6hRm9ZK16N3ugZoX0xRAbYhZu4rH5LHZIHajQx2L8RCGx3RoHAgJX61qr7NRlA0Jmaf7wgHiO5qKc-DnjwuLQbg0z32grxXAwh96L-nDIxX9IWmul7D9pJLu5OjR6qtEr1VWcbnz3NFesvgA3P7THp7YadYFy82kKoVSDhPEgKVz7doFrdX5nhttlDRCce_3AfuvdGhsdwh62Dq5-ptA7wMYPsbjtr8Ixm6ZcqKXXYrC9Yj66Hw_zICiOFVhSFoK5kkpKf9SfdNcGfkmnevNVy7ASpY4qYZz2juq29xQyraaTo0Duow09q2hdb7B1fVWMQRloWpS0HYh6ATPmCaXrvmYFmgS18JuD8m26capXtzRz9IBP8J7ENzYlgPW39iV7lwR_IPjt5K1NdOOnInMj-mVP5lc8fflIuWuFZPhjCSvA-TcJgGOkvDKPLVmd7-k7Fo_zqypjoXns7kuWXdxL2sWaxNYRMF69T-q5wusTPVSGP_tmXpcpyqiqm6m8oquSeNF6WUSVVty1TPHBFCHTZcnz9wJaxeukE_nPtdNtYvxS3wWH_ZKDDvzfBV_0000]--></g></svg>