<?xml version="1.0" encoding="us-ascii" standalone="no"?><svg xmlns="http://www.w3.org/2000/svg" xmlns:xlink="http://www.w3.org/1999/xlink" contentStyleType="text/css" height="800px" preserveAspectRatio="none" style="width:1285px;height:800px;background:#FFFFFF;" version="1.1" viewBox="0 0 1285 800" width="1285px" zoomAndPan="magnify"><defs/><g><text fill="#000000" font-family="sans-serif" font-size="14" font-weight="bold" lengthAdjust="spacing" textLength="437" x="423" y="30.1074">As Librarian I want to register an author with an optional photo</text><rect fill="#FFFFFF" height="665.1895" style="stroke:#181818;stroke-width:1.0;" width="10" x="45" y="88.2422"/><rect fill="#FFFFFF" height="632.8984" style="stroke:#181818;stroke-width:1.0;" width="10" x="274" y="111.5332"/><rect fill="#FFFFFF" height="42.291" style="stroke:#181818;stroke-width:1.0;" width="10" x="279" y="663.8496"/><rect fill="#FFFFFF" height="444.4434" style="stroke:#181818;stroke-width:1.0;" width="10" x="482" y="180.1152"/><rect fill="#FFFFFF" height="542.0254" style="stroke:#181818;stroke-width:1.0;" width="10" x="812" y="211.4063"/><rect fill="#FFFFFF" height="98.873" style="stroke:#181818;stroke-width:1.0;" width="10" x="817" y="450.7734"/><rect fill="#FFFFFF" height="31.291" style="stroke:#181818;stroke-width:1.0;" width="10" x="964.5" y="242.6973"/><rect fill="#FFFFFF" height="31.291" style="stroke:#181818;stroke-width:1.0;" width="10" x="964.5" y="487.0645"/><rect fill="#FFFFFF" height="31.291" style="stroke:#181818;stroke-width:1.0;" width="10" x="1118.5" y="348.9004"/><rect fill="#FFFFFF" height="341.9492" style="stroke:#181818;stroke-width:1.0;" width="10" x="1234" y="411.4824"/><line style="stroke:#181818;stroke-width:0.5;stroke-dasharray:5.0,5.0;" x1="50" x2="50" y1="78.2422" y2="762.4316"/><line style="stroke:#181818;stroke-width:0.5;stroke-dasharray:5.0,5.0;" x1="278.5" x2="278.5" y1="78.2422" y2="762.4316"/><line style="stroke:#181818;stroke-width:0.5;stroke-dasharray:5.0,5.0;" x1="487" x2="487" y1="78.2422" y2="762.4316"/><line style="stroke:#181818;stroke-width:0.5;stroke-dasharray:5.0,5.0;" x1="684" x2="684" y1="589.457" y2="762.4316"/><line style="stroke:#181818;stroke-width:0.5;stroke-dasharray:5.0,5.0;" x1="817" x2="817" y1="78.2422" y2="762.4316"/><line style="stroke:#181818;stroke-width:0.5;stroke-dasharray:5.0,5.0;" x1="969" x2="969" y1="78.2422" y2="762.4316"/><line style="stroke:#181818;stroke-width:0.5;stroke-dasharray:5.0,5.0;" x1="1123" x2="1123" y1="78.2422" y2="762.4316"/><line style="stroke:#181818;stroke-width:0.5;stroke-dasharray:5.0,5.0;" x1="1239" x2="1239" y1="313.7988" y2="762.4316"/><rect fill="#E2E2F0" height="32.6211" rx="2.5" ry="2.5" style="stroke:#181818;stroke-width:0.5;" width="90" x="5" y="44.6211"/><text fill="#000000" font-family="sans-serif" font-size="14" lengthAdjust="spacing" textLength="76" x="12" y="66.7285">:HTTPClient</text><rect fill="#E2E2F0" height="32.6211" rx="2.5" ry="2.5" style="stroke:#181818;stroke-width:0.5;" width="90" x="5" y="761.4316"/><text fill="#000000" font-family="sans-serif" font-size="14" lengthAdjust="spacing" textLength="76" x="12" y="783.5391">:HTTPClient</text><rect fill="#E2E2F0" height="32.6211" rx="2.5" ry="2.5" style="stroke:#181818;stroke-width:0.5;" width="153" x="202.5" y="44.6211"/><text fill="#000000" font-family="sans-serif" font-size="14" lengthAdjust="spacing" textLength="139" x="209.5" y="66.7285">handler:RouteHandler</text><rect fill="#E2E2F0" height="32.6211" rx="2.5" ry="2.5" style="stroke:#181818;stroke-width:0.5;" width="153" x="202.5" y="761.4316"/><text fill="#000000" font-family="sans-serif" font-size="14" lengthAdjust="spacing" textLength="139" x="209.5" y="783.5391">handler:RouteHandler</text><rect fill="#E2E2F0" height="32.6211" rx="2.5" ry="2.5" style="stroke:#181818;stroke-width:0.5;" width="122" x="426" y="44.6211"/><text fill="#000000" font-family="sans-serif" font-size="14" lengthAdjust="spacing" textLength="108" x="433" y="66.7285">:AuthorController</text><rect fill="#E2E2F0" height="32.6211" rx="2.5" ry="2.5" style="stroke:#181818;stroke-width:0.5;" width="122" x="426" y="761.4316"/><text fill="#000000" font-family="sans-serif" font-size="14" lengthAdjust="spacing" textLength="108" x="433" y="783.5391">:AuthorController</text><rect fill="#E2E2F0" height="32.6211" rx="2.5" ry="2.5" style="stroke:#181818;stroke-width:0.5;" width="118" x="625" y="761.4316"/><text fill="#000000" font-family="sans-serif" font-size="14" lengthAdjust="spacing" textLength="104" x="632" y="783.5391">result:HttpResult</text><rect fill="#E2E2F0" height="32.6211" rx="2.5" ry="2.5" style="stroke:#181818;stroke-width:0.5;" width="128" x="753" y="44.6211"/><text fill="#000000" font-family="sans-serif" font-size="14" lengthAdjust="spacing" textLength="114" x="760" y="66.7285">AuthorServiceImpl</text><rect fill="#E2E2F0" height="32.6211" rx="2.5" ry="2.5" style="stroke:#181818;stroke-width:0.5;" width="128" x="753" y="761.4316"/><text fill="#000000" font-family="sans-serif" font-size="14" lengthAdjust="spacing" textLength="114" x="760" y="783.5391">AuthorServiceImpl</text><rect fill="#E2E2F0" height="32.6211" rx="2.5" ry="2.5" style="stroke:#181818;stroke-width:0.5;" width="157" x="891" y="44.6211"/><text fill="#000000" font-family="sans-serif" font-size="14" lengthAdjust="spacing" textLength="143" x="898" y="66.7285">repo:AuthorRepository</text><rect fill="#E2E2F0" height="32.6211" rx="2.5" ry="2.5" style="stroke:#181818;stroke-width:0.5;" width="157" x="891" y="761.4316"/><text fill="#000000" font-family="sans-serif" font-size="14" lengthAdjust="spacing" textLength="143" x="898" y="783.5391">repo:AuthorRepository</text><rect fill="#E2E2F0" height="32.6211" rx="2.5" ry="2.5" style="stroke:#181818;stroke-width:0.5;" width="131" x="1058" y="44.6211"/><text fill="#000000" font-family="sans-serif" font-size="14" lengthAdjust="spacing" textLength="117" x="1065" y="66.7285">photo:MultipartFile</text><rect fill="#E2E2F0" height="32.6211" rx="2.5" ry="2.5" style="stroke:#181818;stroke-width:0.5;" width="131" x="1058" y="761.4316"/><text fill="#000000" font-family="sans-serif" font-size="14" lengthAdjust="spacing" textLength="117" x="1065" y="783.5391">photo:MultipartFile</text><rect fill="#E2E2F0" height="32.6211" rx="2.5" ry="2.5" style="stroke:#181818;stroke-width:0.5;" width="80" x="1199" y="761.4316"/><text fill="#000000" font-family="sans-serif" font-size="14" lengthAdjust="spacing" textLength="66" x="1206" y="783.5391">aut:Author</text><rect fill="#FFFFFF" height="665.1895" style="stroke:#181818;stroke-width:1.0;" width="10" x="45" y="88.2422"/><rect fill="#FFFFFF" height="632.8984" style="stroke:#181818;stroke-width:1.0;" width="10" x="274" y="111.5332"/><rect fill="#FFFFFF" height="42.291" style="stroke:#181818;stroke-width:1.0;" width="10" x="279" y="663.8496"/><rect fill="#FFFFFF" height="444.4434" style="stroke:#181818;stroke-width:1.0;" width="10" x="482" y="180.1152"/><rect fill="#FFFFFF" height="542.0254" style="stroke:#181818;stroke-width:1.0;" width="10" x="812" y="211.4063"/><rect fill="#FFFFFF" height="98.873" style="stroke:#181818;stroke-width:1.0;" width="10" x="817" y="450.7734"/><rect fill="#FFFFFF" height="31.291" style="stroke:#181818;stroke-width:1.0;" width="10" x="964.5" y="242.6973"/><rect fill="#FFFFFF" height="31.291" style="stroke:#181818;stroke-width:1.0;" width="10" x="964.5" y="487.0645"/><rect fill="#FFFFFF" height="31.291" style="stroke:#181818;stroke-width:1.0;" width="10" x="1118.5" y="348.9004"/><rect fill="#FFFFFF" height="341.9492" style="stroke:#181818;stroke-width:1.0;" width="10" x="1234" y="411.4824"/><polygon fill="#181818" points="262,107.5332,272,111.5332,262,115.5332,266,111.5332" style="stroke:#181818;stroke-width:1.0;"/><line style="stroke:#181818;stroke-width:1.0;" x1="55" x2="268" y1="111.5332" y2="111.5332"/><text fill="#000000" font-family="sans-serif" font-size="13" font-weight="bold" lengthAdjust="spacing" textLength="7" x="62" y="106.2705">1</text><text fill="#000000" font-family="sans-serif" font-size="13" lengthAdjust="spacing" textLength="189" x="73" y="106.2705">PUT /authors/{id}(id, data, photo)</text><path d="M206,124.5332 L206,151.5332 L351,151.5332 L351,134.5332 L341,124.5332 L206,124.5332 " fill="#FEFFDD" style="stroke:#181818;stroke-width:0.5;"/><path d="M341,124.5332 L341,134.5332 L351,134.5332 L341,124.5332 " fill="#FEFFDD" style="stroke:#181818;stroke-width:0.5;"/><text fill="#000000" font-family="sans-serif" font-size="13" lengthAdjust="spacing" textLength="124" x="212" y="143.5615">after doing some stuff</text><polygon fill="#181818" points="470,176.1152,480,180.1152,470,184.1152,474,180.1152" style="stroke:#181818;stroke-width:1.0;"/><line style="stroke:#181818;stroke-width:1.0;" x1="284" x2="476" y1="180.1152" y2="180.1152"/><text fill="#000000" font-family="sans-serif" font-size="13" font-weight="bold" lengthAdjust="spacing" textLength="7" x="291" y="174.8525">2</text><text fill="#000000" font-family="sans-serif" font-size="13" lengthAdjust="spacing" textLength="168" x="302" y="174.8525">updateAuthor(id, data, photo)</text><polygon fill="#181818" points="800,207.4063,810,211.4063,800,215.4063,804,211.4063" style="stroke:#181818;stroke-width:1.0;"/><line style="stroke:#181818;stroke-width:1.0;" x1="492" x2="806" y1="211.4063" y2="211.4063"/><text fill="#000000" font-family="sans-serif" font-size="13" font-weight="bold" lengthAdjust="spacing" textLength="7" x="499" y="206.1436">3</text><text fill="#000000" font-family="sans-serif" font-size="13" lengthAdjust="spacing" textLength="168" x="510" y="206.1436">updateAuthor(id, data, photo)</text><polygon fill="#181818" points="952.5,238.6973,962.5,242.6973,952.5,246.6973,956.5,242.6973" style="stroke:#181818;stroke-width:1.0;"/><line style="stroke:#181818;stroke-width:1.0;" x1="822" x2="958.5" y1="242.6973" y2="242.6973"/><text fill="#000000" font-family="sans-serif" font-size="13" font-weight="bold" lengthAdjust="spacing" textLength="7" x="829" y="237.4346">4</text><text fill="#000000" font-family="sans-serif" font-size="13" lengthAdjust="spacing" textLength="100" x="840" y="237.4346">findById(authorId)</text><polygon fill="#181818" points="833,269.9883,823,273.9883,833,277.9883,829,273.9883" style="stroke:#181818;stroke-width:1.0;"/><line style="stroke:#181818;stroke-width:1.0;stroke-dasharray:2.0,2.0;" x1="827" x2="968.5" y1="273.9883" y2="273.9883"/><text fill="#000000" font-family="sans-serif" font-size="13" font-weight="bold" lengthAdjust="spacing" textLength="7" x="839" y="268.7256">5</text><text fill="#000000" font-family="sans-serif" font-size="13" lengthAdjust="spacing" textLength="74" x="850" y="268.7256">Author entity</text><polygon fill="#181818" points="1187,301.2793,1197,305.2793,1187,309.2793,1191,305.2793" style="stroke:#181818;stroke-width:1.0;"/><line style="stroke:#181818;stroke-width:1.0;" x1="822" x2="1193" y1="305.2793" y2="305.2793"/><text fill="#000000" font-family="sans-serif" font-size="13" font-weight="bold" lengthAdjust="spacing" textLength="7" x="829" y="300.0166">6</text><text fill="#000000" font-family="sans-serif" font-size="13" lengthAdjust="spacing" textLength="215" x="840" y="300.0166">setName(data) and setShortBio(data)</text><rect fill="#E2E2F0" height="32.6211" rx="2.5" ry="2.5" style="stroke:#181818;stroke-width:0.5;" width="80" x="1199" y="281.9883"/><text fill="#000000" font-family="sans-serif" font-size="14" lengthAdjust="spacing" textLength="66" x="1206" y="304.0957">aut:Author</text><polygon fill="#181818" points="1106.5,344.9004,1116.5,348.9004,1106.5,352.9004,1110.5,348.9004" style="stroke:#181818;stroke-width:1.0;"/><line style="stroke:#181818;stroke-width:1.0;" x1="822" x2="1112.5" y1="348.9004" y2="348.9004"/><text fill="#000000" font-family="sans-serif" font-size="13" font-weight="bold" lengthAdjust="spacing" textLength="7" x="829" y="343.6377">7</text><text fill="#000000" font-family="sans-serif" font-size="13" lengthAdjust="spacing" textLength="154" x="840" y="343.6377">savePhoto(photo, authorId)</text><polygon fill="#181818" points="833,376.1914,823,380.1914,833,384.1914,829,380.1914" style="stroke:#181818;stroke-width:1.0;"/><line style="stroke:#181818;stroke-width:1.0;stroke-dasharray:2.0,2.0;" x1="827" x2="1122.5" y1="380.1914" y2="380.1914"/><text fill="#000000" font-family="sans-serif" font-size="13" font-weight="bold" lengthAdjust="spacing" textLength="7" x="839" y="374.9287">8</text><text fill="#000000" font-family="sans-serif" font-size="13" lengthAdjust="spacing" textLength="90" x="850" y="374.9287">photoResponse</text><polygon fill="#181818" points="1222,407.4824,1232,411.4824,1222,415.4824,1226,411.4824" style="stroke:#181818;stroke-width:1.0;"/><line style="stroke:#181818;stroke-width:1.0;" x1="822" x2="1228" y1="411.4824" y2="411.4824"/><text fill="#000000" font-family="sans-serif" font-size="13" font-weight="bold" lengthAdjust="spacing" textLength="7" x="829" y="406.2197">9</text><text fill="#000000" font-family="sans-serif" font-size="13" lengthAdjust="spacing" textLength="381" x="840" y="406.2197">setPhotoPath(photoResponse) and setPhotoURL(photoResponse)</text><line style="stroke:#181818;stroke-width:1.0;" x1="822" x2="869" y1="437.7734" y2="437.7734"/><line style="stroke:#181818;stroke-width:1.0;" x1="869" x2="869" y1="437.7734" y2="450.7734"/><line style="stroke:#181818;stroke-width:1.0;" x1="828" x2="869" y1="450.7734" y2="450.7734"/><polygon fill="#181818" points="838,446.7734,828,450.7734,838,454.7734,834,450.7734" style="stroke:#181818;stroke-width:1.0;"/><text fill="#000000" font-family="sans-serif" font-size="13" font-weight="bold" lengthAdjust="spacing" textLength="14" x="834" y="432.5107">10</text><text fill="#000000" font-family="sans-serif" font-size="13" lengthAdjust="spacing" textLength="69" x="852" y="432.5107">validate(aut)</text><polygon fill="#181818" points="952.5,483.0645,962.5,487.0645,952.5,491.0645,956.5,487.0645" style="stroke:#181818;stroke-width:1.0;"/><line style="stroke:#181818;stroke-width:1.0;" x1="827" x2="958.5" y1="487.0645" y2="487.0645"/><text fill="#000000" font-family="sans-serif" font-size="13" font-weight="bold" lengthAdjust="spacing" textLength="14" x="834" y="481.8018">11</text><text fill="#000000" font-family="sans-serif" font-size="13" lengthAdjust="spacing" textLength="65" x="852" y="481.8018">update(aut)</text><polygon fill="#181818" points="838,514.3555,828,518.3555,838,522.3555,834,518.3555" style="stroke:#181818;stroke-width:1.0;"/><line style="stroke:#181818;stroke-width:1.0;stroke-dasharray:2.0,2.0;" x1="832" x2="968.5" y1="518.3555" y2="518.3555"/><text fill="#000000" font-family="sans-serif" font-size="13" font-weight="bold" lengthAdjust="spacing" textLength="14" x="844" y="513.0928">12</text><text fill="#000000" font-family="sans-serif" font-size="13" lengthAdjust="spacing" textLength="14" x="862" y="513.0928">ok</text><polygon fill="#181818" points="503,545.6465,493,549.6465,503,553.6465,499,549.6465" style="stroke:#181818;stroke-width:1.0;"/><line style="stroke:#181818;stroke-width:1.0;stroke-dasharray:2.0,2.0;" x1="497" x2="811" y1="549.6465" y2="549.6465"/><text fill="#000000" font-family="sans-serif" font-size="13" font-weight="bold" lengthAdjust="spacing" textLength="14" x="509" y="544.3838">13</text><text fill="#000000" font-family="sans-serif" font-size="13" lengthAdjust="spacing" textLength="14" x="527" y="544.3838">ok</text><polygon fill="#181818" points="613,576.9375,623,580.9375,613,584.9375,617,580.9375" style="stroke:#181818;stroke-width:1.0;"/><line style="stroke:#181818;stroke-width:1.0;" x1="492" x2="619" y1="580.9375" y2="580.9375"/><text fill="#000000" font-family="sans-serif" font-size="13" font-weight="bold" lengthAdjust="spacing" textLength="14" x="499" y="575.6748">14</text><text fill="#000000" font-family="sans-serif" font-size="13" lengthAdjust="spacing" textLength="91" x="517" y="575.6748">update(200 OK)</text><rect fill="#E2E2F0" height="32.6211" rx="2.5" ry="2.5" style="stroke:#181818;stroke-width:0.5;" width="118" x="625" y="557.6465"/><text fill="#000000" font-family="sans-serif" font-size="14" lengthAdjust="spacing" textLength="104" x="632" y="579.7539">result:HttpResult</text><polygon fill="#181818" points="295,620.5586,285,624.5586,295,628.5586,291,624.5586" style="stroke:#181818;stroke-width:1.0;"/><line style="stroke:#181818;stroke-width:1.0;stroke-dasharray:2.0,2.0;" x1="289" x2="486" y1="624.5586" y2="624.5586"/><text fill="#000000" font-family="sans-serif" font-size="13" font-weight="bold" lengthAdjust="spacing" textLength="14" x="301" y="619.2959">15</text><text fill="#000000" font-family="sans-serif" font-size="13" lengthAdjust="spacing" textLength="32" x="319" y="619.2959">result</text><line style="stroke:#181818;stroke-width:1.0;" x1="284" x2="331" y1="650.8496" y2="650.8496"/><line style="stroke:#181818;stroke-width:1.0;" x1="331" x2="331" y1="650.8496" y2="663.8496"/><line style="stroke:#181818;stroke-width:1.0;" x1="290" x2="331" y1="663.8496" y2="663.8496"/><polygon fill="#181818" points="300,659.8496,290,663.8496,300,667.8496,296,663.8496" style="stroke:#181818;stroke-width:1.0;"/><text fill="#000000" font-family="sans-serif" font-size="13" font-weight="bold" lengthAdjust="spacing" textLength="14" x="296" y="645.5869">16</text><text fill="#000000" font-family="sans-serif" font-size="13" lengthAdjust="spacing" textLength="152" x="314" y="645.5869">setHttpResult(resp, result)</text><line style="stroke:#181818;stroke-width:1.0;stroke-dasharray:2.0,2.0;" x1="289" x2="331" y1="705.1406" y2="705.1406"/><line style="stroke:#181818;stroke-width:1.0;stroke-dasharray:2.0,2.0;" x1="331" x2="331" y1="705.1406" y2="718.1406"/><line style="stroke:#181818;stroke-width:1.0;stroke-dasharray:2.0,2.0;" x1="284" x2="331" y1="718.1406" y2="718.1406"/><polygon fill="#181818" points="294,714.1406,284,718.1406,294,722.1406,290,718.1406" style="stroke:#181818;stroke-width:1.0;"/><text fill="#000000" font-family="sans-serif" font-size="13" font-weight="bold" lengthAdjust="spacing" textLength="14" x="296" y="699.8779">17</text><text fill="#000000" font-family="sans-serif" font-size="13" lengthAdjust="spacing" textLength="4" x="314" y="699.8779">&#160;</text><polygon fill="#181818" points="66,740.4316,56,744.4316,66,748.4316,62,744.4316" style="stroke:#181818;stroke-width:1.0;"/><line style="stroke:#181818;stroke-width:1.0;stroke-dasharray:2.0,2.0;" x1="60" x2="278" y1="744.4316" y2="744.4316"/><text fill="#000000" font-family="sans-serif" font-size="13" font-weight="bold" lengthAdjust="spacing" textLength="14" x="72" y="739.1689">18</text><text fill="#000000" font-family="sans-serif" font-size="13" lengthAdjust="spacing" textLength="25" x="90" y="739.1689">resp</text><!--SRC=[XLF9Rjim4BtpAmQ-L0xiEkXHXmA9WS96qzQmdGzW9DeQb29PSkJ0AFhlvI9PIrAKfrdUF0xV30b92fWzE7Z25yijSWLRUEMAW3HOSKP7meAFyeOgRU4LgGgkDeHQSGccqgHdZ7seY8pBLoiZVNLJou-5hbTE_6g4AiIoH7wsl6QUHlE2yC99W5RHLqtz8YnZXbl20asuVPPlZiVTMg9GD0Fke7V7k8ghKWgRxtL3OfESM72u-jRh2Ub3VCLQAx9QTiWrMJd6MU4QIVd6FsaVpOXBvXYP20_2Nh0Gszh8T7VlJucDRflOUzCXQNjjoOqUOwEo-JT_9ORu5vGY8dSXFePw5LlMY4Wcy-SczK0-rjkm_DpgbCFk-GYhD6Mt-etbdmpB1PIS-28DUSwOqc5g5xyHNHK_XVqeDQepE5qBSDISJeobVE0FwkRG6CyaKcDlYGCczjBhzh-I0JHK1lboEA4g7w_RCalls9Pp5XAmd78dLl0I85sdN2bvTvU34_ITro8BDy_zsfSXSl19UaITejFYE1rVoIyYcbdiTm5zHp7yjgM8yojcj7BY_PPYGx5ynwdAHXMtzcB-UVyqIKyPXsuE5oung1s4-uUsQHm9y9wedaN_79VUfkyJtOZJ9mhYjeIVxk_XnzTk1mOBcJxXO9EwX7za_pCp3pEB5Zo_eNluCDHlVgGtVm40]--></g></svg>