<?xml version="1.0" encoding="us-ascii" standalone="no"?><svg xmlns="http://www.w3.org/2000/svg" xmlns:xlink="http://www.w3.org/1999/xlink" contentStyleType="text/css" height="555px" preserveAspectRatio="none" style="width:1061px;height:555px;background:#FFFFFF;" version="1.1" viewBox="0 0 1061 555" width="1061px" zoomAndPan="magnify"><defs/><g><text fill="#000000" font-family="sans-serif" font-size="14" font-weight="bold" lengthAdjust="spacing" textLength="340" x="359.75" y="30.1074">As Reader I want to know the books of an Author</text><rect fill="#FFFFFF" height="420.8223" style="stroke:#181818;stroke-width:1.0;" width="10" x="45" y="88.2422"/><rect fill="#FFFFFF" height="388.5313" style="stroke:#181818;stroke-width:1.0;" width="10" x="236" y="111.5332"/><rect fill="#FFFFFF" height="42.291" style="stroke:#181818;stroke-width:1.0;" width="10" x="241" y="419.4824"/><rect fill="#FFFFFF" height="200.0762" style="stroke:#181818;stroke-width:1.0;" width="10" x="423" y="180.1152"/><rect fill="#FFFFFF" height="93.873" style="stroke:#181818;stroke-width:1.0;" width="10" x="684" y="211.4063"/><rect fill="#FFFFFF" height="31.291" style="stroke:#181818;stroke-width:1.0;" width="10" x="849" y="242.6973"/><line style="stroke:#181818;stroke-width:0.5;stroke-dasharray:5.0,5.0;" x1="50" x2="50" y1="78.2422" y2="518.0645"/><line style="stroke:#181818;stroke-width:0.5;stroke-dasharray:5.0,5.0;" x1="240.5" x2="240.5" y1="78.2422" y2="518.0645"/><line style="stroke:#181818;stroke-width:0.5;stroke-dasharray:5.0,5.0;" x1="428" x2="428" y1="78.2422" y2="518.0645"/><line style="stroke:#181818;stroke-width:0.5;stroke-dasharray:5.0,5.0;" x1="689" x2="689" y1="78.2422" y2="518.0645"/><line style="stroke:#181818;stroke-width:0.5;stroke-dasharray:5.0,5.0;" x1="853.5" x2="853.5" y1="78.2422" y2="518.0645"/><line style="stroke:#181818;stroke-width:0.5;stroke-dasharray:5.0,5.0;" x1="996.5" x2="996.5" y1="345.0898" y2="518.0645"/><rect fill="#E2E2F0" height="32.6211" rx="2.5" ry="2.5" style="stroke:#181818;stroke-width:0.5;" width="90" x="5" y="44.6211"/><text fill="#000000" font-family="sans-serif" font-size="14" lengthAdjust="spacing" textLength="76" x="12" y="66.7285">:HTTPClient</text><rect fill="#E2E2F0" height="32.6211" rx="2.5" ry="2.5" style="stroke:#181818;stroke-width:0.5;" width="90" x="5" y="517.0645"/><text fill="#000000" font-family="sans-serif" font-size="14" lengthAdjust="spacing" textLength="76" x="12" y="539.1719">:HTTPClient</text><rect fill="#E2E2F0" height="32.6211" rx="2.5" ry="2.5" style="stroke:#181818;stroke-width:0.5;" width="153" x="164.5" y="44.6211"/><text fill="#000000" font-family="sans-serif" font-size="14" lengthAdjust="spacing" textLength="139" x="171.5" y="66.7285">handler:RouteHandler</text><rect fill="#E2E2F0" height="32.6211" rx="2.5" ry="2.5" style="stroke:#181818;stroke-width:0.5;" width="153" x="164.5" y="517.0645"/><text fill="#000000" font-family="sans-serif" font-size="14" lengthAdjust="spacing" textLength="139" x="171.5" y="539.1719">handler:RouteHandler</text><rect fill="#E2E2F0" height="32.6211" rx="2.5" ry="2.5" style="stroke:#181818;stroke-width:0.5;" width="118" x="369" y="44.6211"/><text fill="#000000" font-family="sans-serif" font-size="14" lengthAdjust="spacing" textLength="104" x="376" y="66.7285">AuthorController</text><rect fill="#E2E2F0" height="32.6211" rx="2.5" ry="2.5" style="stroke:#181818;stroke-width:0.5;" width="118" x="369" y="517.0645"/><text fill="#000000" font-family="sans-serif" font-size="14" lengthAdjust="spacing" textLength="104" x="376" y="539.1719">AuthorController</text><rect fill="#E2E2F0" height="32.6211" rx="2.5" ry="2.5" style="stroke:#181818;stroke-width:0.5;" width="128" x="625" y="44.6211"/><text fill="#000000" font-family="sans-serif" font-size="14" lengthAdjust="spacing" textLength="114" x="632" y="66.7285">AuthorServiceImpl</text><rect fill="#E2E2F0" height="32.6211" rx="2.5" ry="2.5" style="stroke:#181818;stroke-width:0.5;" width="128" x="625" y="517.0645"/><text fill="#000000" font-family="sans-serif" font-size="14" lengthAdjust="spacing" textLength="114" x="632" y="539.1719">AuthorServiceImpl</text><rect fill="#E2E2F0" height="32.6211" rx="2.5" ry="2.5" style="stroke:#181818;stroke-width:0.5;" width="147" x="780.5" y="44.6211"/><text fill="#000000" font-family="sans-serif" font-size="14" lengthAdjust="spacing" textLength="133" x="787.5" y="66.7285">repo:BookRepository</text><rect fill="#E2E2F0" height="32.6211" rx="2.5" ry="2.5" style="stroke:#181818;stroke-width:0.5;" width="147" x="780.5" y="517.0645"/><text fill="#000000" font-family="sans-serif" font-size="14" lengthAdjust="spacing" textLength="133" x="787.5" y="539.1719">repo:BookRepository</text><rect fill="#E2E2F0" height="32.6211" rx="2.5" ry="2.5" style="stroke:#181818;stroke-width:0.5;" width="118" x="937.5" y="517.0645"/><text fill="#000000" font-family="sans-serif" font-size="14" lengthAdjust="spacing" textLength="104" x="944.5" y="539.1719">result:HttpResult</text><rect fill="#FFFFFF" height="420.8223" style="stroke:#181818;stroke-width:1.0;" width="10" x="45" y="88.2422"/><rect fill="#FFFFFF" height="388.5313" style="stroke:#181818;stroke-width:1.0;" width="10" x="236" y="111.5332"/><rect fill="#FFFFFF" height="42.291" style="stroke:#181818;stroke-width:1.0;" width="10" x="241" y="419.4824"/><rect fill="#FFFFFF" height="200.0762" style="stroke:#181818;stroke-width:1.0;" width="10" x="423" y="180.1152"/><rect fill="#FFFFFF" height="93.873" style="stroke:#181818;stroke-width:1.0;" width="10" x="684" y="211.4063"/><rect fill="#FFFFFF" height="31.291" style="stroke:#181818;stroke-width:1.0;" width="10" x="849" y="242.6973"/><polygon fill="#181818" points="224,107.5332,234,111.5332,224,115.5332,228,111.5332" style="stroke:#181818;stroke-width:1.0;"/><line style="stroke:#181818;stroke-width:1.0;" x1="55" x2="230" y1="111.5332" y2="111.5332"/><text fill="#000000" font-family="sans-serif" font-size="13" font-weight="bold" lengthAdjust="spacing" textLength="7" x="62" y="106.2705">1</text><text fill="#000000" font-family="sans-serif" font-size="13" lengthAdjust="spacing" textLength="151" x="73" y="106.2705">GET /books/{authorName}</text><path d="M168,124.5332 L168,151.5332 L313,151.5332 L313,134.5332 L303,124.5332 L168,124.5332 " fill="#FEFFDD" style="stroke:#181818;stroke-width:0.5;"/><path d="M303,124.5332 L303,134.5332 L313,134.5332 L303,124.5332 " fill="#FEFFDD" style="stroke:#181818;stroke-width:0.5;"/><text fill="#000000" font-family="sans-serif" font-size="13" lengthAdjust="spacing" textLength="124" x="174" y="143.5615">after doing some stuff</text><polygon fill="#181818" points="411,176.1152,421,180.1152,411,184.1152,415,180.1152" style="stroke:#181818;stroke-width:1.0;"/><line style="stroke:#181818;stroke-width:1.0;" x1="246" x2="417" y1="180.1152" y2="180.1152"/><text fill="#000000" font-family="sans-serif" font-size="13" font-weight="bold" lengthAdjust="spacing" textLength="7" x="253" y="174.8525">2</text><text fill="#000000" font-family="sans-serif" font-size="13" lengthAdjust="spacing" textLength="143" x="264" y="174.8525">getBooksByAuthorName</text><polygon fill="#181818" points="672,207.4063,682,211.4063,672,215.4063,676,211.4063" style="stroke:#181818;stroke-width:1.0;"/><line style="stroke:#181818;stroke-width:1.0;" x1="433" x2="678" y1="211.4063" y2="211.4063"/><text fill="#000000" font-family="sans-serif" font-size="13" font-weight="bold" lengthAdjust="spacing" textLength="7" x="440" y="206.1436">3</text><text fill="#000000" font-family="sans-serif" font-size="13" lengthAdjust="spacing" textLength="221" x="451" y="206.1436">getBooksByAuthorName(authorName)</text><polygon fill="#181818" points="837,238.6973,847,242.6973,837,246.6973,841,242.6973" style="stroke:#181818;stroke-width:1.0;"/><line style="stroke:#181818;stroke-width:1.0;" x1="694" x2="843" y1="242.6973" y2="242.6973"/><text fill="#000000" font-family="sans-serif" font-size="13" font-weight="bold" lengthAdjust="spacing" textLength="7" x="701" y="237.4346">4</text><text fill="#000000" font-family="sans-serif" font-size="13" lengthAdjust="spacing" textLength="125" x="712" y="237.4346">findByAuthors(author)</text><polygon fill="#181818" points="705,269.9883,695,273.9883,705,277.9883,701,273.9883" style="stroke:#181818;stroke-width:1.0;"/><line style="stroke:#181818;stroke-width:1.0;stroke-dasharray:2.0,2.0;" x1="699" x2="853" y1="273.9883" y2="273.9883"/><text fill="#000000" font-family="sans-serif" font-size="13" font-weight="bold" lengthAdjust="spacing" textLength="7" x="711" y="268.7256">5</text><text fill="#000000" font-family="sans-serif" font-size="13" lengthAdjust="spacing" textLength="67" x="722" y="268.7256">List&lt;Book&gt;</text><polygon fill="#181818" points="444,301.2793,434,305.2793,444,309.2793,440,305.2793" style="stroke:#181818;stroke-width:1.0;"/><line style="stroke:#181818;stroke-width:1.0;stroke-dasharray:2.0,2.0;" x1="438" x2="688" y1="305.2793" y2="305.2793"/><text fill="#000000" font-family="sans-serif" font-size="13" font-weight="bold" lengthAdjust="spacing" textLength="7" x="450" y="300.0166">6</text><text fill="#000000" font-family="sans-serif" font-size="13" lengthAdjust="spacing" textLength="67" x="461" y="300.0166">List&lt;Book&gt;</text><polygon fill="#181818" points="925.5,332.5703,935.5,336.5703,925.5,340.5703,929.5,336.5703" style="stroke:#181818;stroke-width:1.0;"/><line style="stroke:#181818;stroke-width:1.0;stroke-dasharray:2.0,2.0;" x1="433" x2="931.5" y1="336.5703" y2="336.5703"/><text fill="#000000" font-family="sans-serif" font-size="13" font-weight="bold" lengthAdjust="spacing" textLength="7" x="440" y="331.3076">7</text><text fill="#000000" font-family="sans-serif" font-size="13" lengthAdjust="spacing" textLength="140" x="451" y="331.3076">create(200 OK, jsonObj)</text><rect fill="#E2E2F0" height="32.6211" rx="2.5" ry="2.5" style="stroke:#181818;stroke-width:0.5;" width="118" x="937.5" y="313.2793"/><text fill="#000000" font-family="sans-serif" font-size="14" lengthAdjust="spacing" textLength="104" x="944.5" y="335.3867">result:HttpResult</text><polygon fill="#181818" points="257,376.1914,247,380.1914,257,384.1914,253,380.1914" style="stroke:#181818;stroke-width:1.0;"/><line style="stroke:#181818;stroke-width:1.0;stroke-dasharray:2.0,2.0;" x1="251" x2="427" y1="380.1914" y2="380.1914"/><text fill="#000000" font-family="sans-serif" font-size="13" font-weight="bold" lengthAdjust="spacing" textLength="7" x="263" y="374.9287">8</text><text fill="#000000" font-family="sans-serif" font-size="13" lengthAdjust="spacing" textLength="32" x="274" y="374.9287">result</text><line style="stroke:#181818;stroke-width:1.0;" x1="246" x2="293" y1="406.4824" y2="406.4824"/><line style="stroke:#181818;stroke-width:1.0;" x1="293" x2="293" y1="406.4824" y2="419.4824"/><line style="stroke:#181818;stroke-width:1.0;" x1="252" x2="293" y1="419.4824" y2="419.4824"/><polygon fill="#181818" points="262,415.4824,252,419.4824,262,423.4824,258,419.4824" style="stroke:#181818;stroke-width:1.0;"/><text fill="#000000" font-family="sans-serif" font-size="13" font-weight="bold" lengthAdjust="spacing" textLength="7" x="258" y="401.2197">9</text><text fill="#000000" font-family="sans-serif" font-size="13" lengthAdjust="spacing" textLength="152" x="269" y="401.2197">setHttpResult(resp, result)</text><line style="stroke:#181818;stroke-width:1.0;stroke-dasharray:2.0,2.0;" x1="251" x2="293" y1="460.7734" y2="460.7734"/><line style="stroke:#181818;stroke-width:1.0;stroke-dasharray:2.0,2.0;" x1="293" x2="293" y1="460.7734" y2="473.7734"/><line style="stroke:#181818;stroke-width:1.0;stroke-dasharray:2.0,2.0;" x1="246" x2="293" y1="473.7734" y2="473.7734"/><polygon fill="#181818" points="256,469.7734,246,473.7734,256,477.7734,252,473.7734" style="stroke:#181818;stroke-width:1.0;"/><text fill="#000000" font-family="sans-serif" font-size="13" font-weight="bold" lengthAdjust="spacing" textLength="14" x="258" y="455.5107">10</text><text fill="#000000" font-family="sans-serif" font-size="13" lengthAdjust="spacing" textLength="4" x="276" y="455.5107">&#160;</text><polygon fill="#181818" points="66,496.0645,56,500.0645,66,504.0645,62,500.0645" style="stroke:#181818;stroke-width:1.0;"/><line style="stroke:#181818;stroke-width:1.0;stroke-dasharray:2.0,2.0;" x1="60" x2="240" y1="500.0645" y2="500.0645"/><text fill="#000000" font-family="sans-serif" font-size="13" font-weight="bold" lengthAdjust="spacing" textLength="14" x="72" y="494.8018">11</text><text fill="#000000" font-family="sans-serif" font-size="13" lengthAdjust="spacing" textLength="25" x="90" y="494.8018">resp</text><!--SRC=[RP5DRi8m48NtFiM85Q0YK9THXGIeAgXLgG8NC6G2XiGJsHCGgdhtnWx10R6Rv_dcxvaLPmYTYOKOPO865d2Mce49ZfhEm7k43T7H0gKWDKnAtfFf25aooIshasG4qbxhCj-W4K8Kqh3Qgi8rwaJpzVfdbYdKt05f8SXxRYzrag69OYePvxNm1QkBPSpluNgD6Masb3NWZ4ts35kXEQajBl8Ygni6VOyRB2YQLjV6LM0Laxdu0YSVILjc7CsPYzY7Lyw5GjoCQTqgGWo3yVMe23xUrp3q1Wz_fT_sM-Ru9pGvNq_LXpIaJBbI2Icz0qivWkKoJKMTTYtT-H7iaDq5TdgPtDe9b_9Jm-NFoMxOeITQj2jsBaIGAfqq5VQAzuJBmU1nmfUo_EPcZEzxtPPj0VMAVempiT-FO6kmCh7xEXh1ylC53fRqSdFe1RInflwDbXLDmYA7B-fMMF5oXNitEk3jf_1RldqX_W40]--></g></svg>