<?xml version="1.0" encoding="us-ascii" standalone="no"?><svg xmlns="http://www.w3.org/2000/svg" xmlns:xlink="http://www.w3.org/1999/xlink" contentStyleType="text/css" height="751px" preserveAspectRatio="none" style="width:1578px;height:751px;background:#FFFFFF;" version="1.1" viewBox="0 0 1578 751" width="1578px" zoomAndPan="magnify"><defs/><g><text fill="#000000" font-family="sans-serif" font-size="14" font-weight="bold" lengthAdjust="spacing" textLength="566" x="507.5" y="30.1074">As Reader I want to know the co-authors of an author and their respective books</text><rect fill="#FFFFFF" height="616.5684" style="stroke:#181818;stroke-width:1.0;" width="10" x="45" y="88.2422"/><rect fill="#FFFFFF" height="584.2773" style="stroke:#181818;stroke-width:1.0;" width="10" x="260" y="111.5332"/><rect fill="#FFFFFF" height="42.291" style="stroke:#181818;stroke-width:1.0;" width="10" x="265" y="615.2285"/><rect fill="#FFFFFF" height="395.8223" style="stroke:#181818;stroke-width:1.0;" width="10" x="517" y="180.1152"/><rect fill="#FFFFFF" height="289.6191" style="stroke:#181818;stroke-width:1.0;" width="10" x="774" y="211.4063"/><rect fill="#FFFFFF" height="31.291" style="stroke:#181818;stroke-width:1.0;" width="10" x="1039" y="242.6973"/><rect fill="#FFFFFF" height="31.291" style="stroke:#181818;stroke-width:1.0;" width="10" x="1303" y="342.5703"/><rect fill="#FFFFFF" height="31.291" style="stroke:#181818;stroke-width:1.0;" width="10" x="1303" y="431.4434"/><rect fill="#FFFFFF" height="31.291" style="stroke:#181818;stroke-width:1.0;" width="10" x="1502" y="431.4434"/><rect fill="none" height="81.873" style="stroke:#000000;stroke-width:1.5;" width="867" x="705" y="388.8613"/><line style="stroke:#181818;stroke-width:0.5;stroke-dasharray:5.0,5.0;" x1="50" x2="50" y1="78.2422" y2="713.8105"/><line style="stroke:#181818;stroke-width:0.5;stroke-dasharray:5.0,5.0;" x1="264.5" x2="264.5" y1="78.2422" y2="713.8105"/><line style="stroke:#181818;stroke-width:0.5;stroke-dasharray:5.0,5.0;" x1="522" x2="522" y1="78.2422" y2="713.8105"/><line style="stroke:#181818;stroke-width:0.5;stroke-dasharray:5.0,5.0;" x1="779" x2="779" y1="78.2422" y2="713.8105"/><line style="stroke:#181818;stroke-width:0.5;stroke-dasharray:5.0,5.0;" x1="915" x2="915" y1="78.2422" y2="713.8105"/><line style="stroke:#181818;stroke-width:0.5;stroke-dasharray:5.0,5.0;" x1="1044" x2="1044" y1="78.2422" y2="713.8105"/><line style="stroke:#181818;stroke-width:0.5;stroke-dasharray:5.0,5.0;" x1="1170" x2="1170" y1="540.8359" y2="713.8105"/><line style="stroke:#181818;stroke-width:0.5;stroke-dasharray:5.0,5.0;" x1="1308" x2="1308" y1="78.2422" y2="713.8105"/><line style="stroke:#181818;stroke-width:0.5;stroke-dasharray:5.0,5.0;" x1="1507" x2="1507" y1="78.2422" y2="713.8105"/><rect fill="#E2E2F0" height="32.6211" rx="2.5" ry="2.5" style="stroke:#181818;stroke-width:0.5;" width="90" x="5" y="44.6211"/><text fill="#000000" font-family="sans-serif" font-size="14" lengthAdjust="spacing" textLength="76" x="12" y="66.7285">:HTTPClient</text><rect fill="#E2E2F0" height="32.6211" rx="2.5" ry="2.5" style="stroke:#181818;stroke-width:0.5;" width="90" x="5" y="712.8105"/><text fill="#000000" font-family="sans-serif" font-size="14" lengthAdjust="spacing" textLength="76" x="12" y="734.918">:HTTPClient</text><rect fill="#E2E2F0" height="32.6211" rx="2.5" ry="2.5" style="stroke:#181818;stroke-width:0.5;" width="153" x="188.5" y="44.6211"/><text fill="#000000" font-family="sans-serif" font-size="14" lengthAdjust="spacing" textLength="139" x="195.5" y="66.7285">handler:RouteHandler</text><rect fill="#E2E2F0" height="32.6211" rx="2.5" ry="2.5" style="stroke:#181818;stroke-width:0.5;" width="153" x="188.5" y="712.8105"/><text fill="#000000" font-family="sans-serif" font-size="14" lengthAdjust="spacing" textLength="139" x="195.5" y="734.918">handler:RouteHandler</text><rect fill="#E2E2F0" height="32.6211" rx="2.5" ry="2.5" style="stroke:#181818;stroke-width:0.5;" width="118" x="463" y="44.6211"/><text fill="#000000" font-family="sans-serif" font-size="14" lengthAdjust="spacing" textLength="104" x="470" y="66.7285">AuthorController</text><rect fill="#E2E2F0" height="32.6211" rx="2.5" ry="2.5" style="stroke:#181818;stroke-width:0.5;" width="118" x="463" y="712.8105"/><text fill="#000000" font-family="sans-serif" font-size="14" lengthAdjust="spacing" textLength="104" x="470" y="734.918">AuthorController</text><rect fill="#E2E2F0" height="32.6211" rx="2.5" ry="2.5" style="stroke:#181818;stroke-width:0.5;" width="128" x="715" y="44.6211"/><text fill="#000000" font-family="sans-serif" font-size="14" lengthAdjust="spacing" textLength="114" x="722" y="66.7285">AuthorServiceImpl</text><rect fill="#E2E2F0" height="32.6211" rx="2.5" ry="2.5" style="stroke:#181818;stroke-width:0.5;" width="128" x="715" y="712.8105"/><text fill="#000000" font-family="sans-serif" font-size="14" lengthAdjust="spacing" textLength="114" x="722" y="734.918">AuthorServiceImpl</text><rect fill="#E2E2F0" height="32.6211" rx="2.5" ry="2.5" style="stroke:#181818;stroke-width:0.5;" width="124" x="853" y="44.6211"/><text fill="#000000" font-family="sans-serif" font-size="14" lengthAdjust="spacing" textLength="110" x="860" y="66.7285">AuthorRepository</text><rect fill="#E2E2F0" height="32.6211" rx="2.5" ry="2.5" style="stroke:#181818;stroke-width:0.5;" width="124" x="853" y="712.8105"/><text fill="#000000" font-family="sans-serif" font-size="14" lengthAdjust="spacing" textLength="110" x="860" y="734.918">AuthorRepository</text><rect fill="#E2E2F0" height="32.6211" rx="2.5" ry="2.5" style="stroke:#181818;stroke-width:0.5;" width="114" x="987" y="44.6211"/><text fill="#000000" font-family="sans-serif" font-size="14" lengthAdjust="spacing" textLength="100" x="994" y="66.7285">BookRepository</text><rect fill="#E2E2F0" height="32.6211" rx="2.5" ry="2.5" style="stroke:#181818;stroke-width:0.5;" width="114" x="987" y="712.8105"/><text fill="#000000" font-family="sans-serif" font-size="14" lengthAdjust="spacing" textLength="100" x="994" y="734.918">BookRepository</text><rect fill="#E2E2F0" height="32.6211" rx="2.5" ry="2.5" style="stroke:#181818;stroke-width:0.5;" width="118" x="1111" y="712.8105"/><text fill="#000000" font-family="sans-serif" font-size="14" lengthAdjust="spacing" textLength="104" x="1118" y="734.918">result:HttpResult</text><rect fill="#E2E2F0" height="32.6211" rx="2.5" ry="2.5" style="stroke:#181818;stroke-width:0.5;" width="138" x="1239" y="44.6211"/><text fill="#000000" font-family="sans-serif" font-size="14" lengthAdjust="spacing" textLength="124" x="1246" y="66.7285">CoAuthorResponse</text><rect fill="#E2E2F0" height="32.6211" rx="2.5" ry="2.5" style="stroke:#181818;stroke-width:0.5;" width="138" x="1239" y="712.8105"/><text fill="#000000" font-family="sans-serif" font-size="14" lengthAdjust="spacing" textLength="124" x="1246" y="734.918">CoAuthorResponse</text><rect fill="#E2E2F0" height="32.6211" rx="2.5" ry="2.5" style="stroke:#181818;stroke-width:0.5;" width="110" x="1452" y="44.6211"/><text fill="#000000" font-family="sans-serif" font-size="14" lengthAdjust="spacing" textLength="96" x="1459" y="66.7285">BookResponse</text><rect fill="#E2E2F0" height="32.6211" rx="2.5" ry="2.5" style="stroke:#181818;stroke-width:0.5;" width="110" x="1452" y="712.8105"/><text fill="#000000" font-family="sans-serif" font-size="14" lengthAdjust="spacing" textLength="96" x="1459" y="734.918">BookResponse</text><rect fill="#FFFFFF" height="616.5684" style="stroke:#181818;stroke-width:1.0;" width="10" x="45" y="88.2422"/><rect fill="#FFFFFF" height="584.2773" style="stroke:#181818;stroke-width:1.0;" width="10" x="260" y="111.5332"/><rect fill="#FFFFFF" height="42.291" style="stroke:#181818;stroke-width:1.0;" width="10" x="265" y="615.2285"/><rect fill="#FFFFFF" height="395.8223" style="stroke:#181818;stroke-width:1.0;" width="10" x="517" y="180.1152"/><rect fill="#FFFFFF" height="289.6191" style="stroke:#181818;stroke-width:1.0;" width="10" x="774" y="211.4063"/><rect fill="#FFFFFF" height="31.291" style="stroke:#181818;stroke-width:1.0;" width="10" x="1039" y="242.6973"/><rect fill="#FFFFFF" height="31.291" style="stroke:#181818;stroke-width:1.0;" width="10" x="1303" y="342.5703"/><rect fill="#FFFFFF" height="31.291" style="stroke:#181818;stroke-width:1.0;" width="10" x="1303" y="431.4434"/><rect fill="#FFFFFF" height="31.291" style="stroke:#181818;stroke-width:1.0;" width="10" x="1502" y="431.4434"/><polygon fill="#181818" points="248,107.5332,258,111.5332,248,115.5332,252,111.5332" style="stroke:#181818;stroke-width:1.0;"/><line style="stroke:#181818;stroke-width:1.0;" x1="55" x2="254" y1="111.5332" y2="111.5332"/><text fill="#000000" font-family="sans-serif" font-size="13" font-weight="bold" lengthAdjust="spacing" textLength="7" x="62" y="106.2705">1</text><text fill="#000000" font-family="sans-serif" font-size="13" lengthAdjust="spacing" textLength="175" x="73" y="106.2705">GET /coAuthors/{authorName}</text><path d="M192,124.5332 L192,151.5332 L337,151.5332 L337,134.5332 L327,124.5332 L192,124.5332 " fill="#FEFFDD" style="stroke:#181818;stroke-width:0.5;"/><path d="M327,124.5332 L327,134.5332 L337,134.5332 L327,124.5332 " fill="#FEFFDD" style="stroke:#181818;stroke-width:0.5;"/><text fill="#000000" font-family="sans-serif" font-size="13" lengthAdjust="spacing" textLength="124" x="198" y="143.5615">after doing some stuff</text><polygon fill="#181818" points="505,176.1152,515,180.1152,505,184.1152,509,180.1152" style="stroke:#181818;stroke-width:1.0;"/><line style="stroke:#181818;stroke-width:1.0;" x1="270" x2="511" y1="180.1152" y2="180.1152"/><text fill="#000000" font-family="sans-serif" font-size="13" font-weight="bold" lengthAdjust="spacing" textLength="7" x="277" y="174.8525">2</text><text fill="#000000" font-family="sans-serif" font-size="13" lengthAdjust="spacing" textLength="217" x="288" y="174.8525">getCoAuthorsAndBooks(authorName)</text><polygon fill="#181818" points="762,207.4063,772,211.4063,762,215.4063,766,211.4063" style="stroke:#181818;stroke-width:1.0;"/><line style="stroke:#181818;stroke-width:1.0;" x1="527" x2="768" y1="211.4063" y2="211.4063"/><text fill="#000000" font-family="sans-serif" font-size="13" font-weight="bold" lengthAdjust="spacing" textLength="7" x="534" y="206.1436">3</text><text fill="#000000" font-family="sans-serif" font-size="13" lengthAdjust="spacing" textLength="217" x="545" y="206.1436">getCoAuthorsAndBooks(authorName)</text><polygon fill="#181818" points="1027,238.6973,1037,242.6973,1027,246.6973,1031,242.6973" style="stroke:#181818;stroke-width:1.0;"/><line style="stroke:#181818;stroke-width:1.0;" x1="784" x2="1033" y1="242.6973" y2="242.6973"/><text fill="#000000" font-family="sans-serif" font-size="13" font-weight="bold" lengthAdjust="spacing" textLength="7" x="791" y="237.4346">4</text><text fill="#000000" font-family="sans-serif" font-size="13" lengthAdjust="spacing" textLength="219" x="802" y="237.4346">findCoAuthorsAndBooks(authorName)</text><polygon fill="#181818" points="795,269.9883,785,273.9883,795,277.9883,791,273.9883" style="stroke:#181818;stroke-width:1.0;"/><line style="stroke:#181818;stroke-width:1.0;stroke-dasharray:2.0,2.0;" x1="789" x2="1043" y1="273.9883" y2="273.9883"/><text fill="#000000" font-family="sans-serif" font-size="13" font-weight="bold" lengthAdjust="spacing" textLength="7" x="801" y="268.7256">5</text><text fill="#000000" font-family="sans-serif" font-size="13" lengthAdjust="spacing" textLength="67" x="812" y="268.7256">List&lt;Book&gt;</text><path d="M680,286.9883 L680,313.9883 L878,313.9883 L878,296.9883 L868,286.9883 L680,286.9883 " fill="#FEFFDD" style="stroke:#181818;stroke-width:0.5;"/><path d="M868,286.9883 L868,296.9883 L878,296.9883 L868,286.9883 " fill="#FEFFDD" style="stroke:#181818;stroke-width:0.5;"/><text fill="#000000" font-family="sans-serif" font-size="13" lengthAdjust="spacing" textLength="177" x="686" y="306.0166">Process books and co-authors</text><polygon fill="#181818" points="1291,338.5703,1301,342.5703,1291,346.5703,1295,342.5703" style="stroke:#181818;stroke-width:1.0;"/><line style="stroke:#181818;stroke-width:1.0;" x1="784" x2="1297" y1="342.5703" y2="342.5703"/><text fill="#000000" font-family="sans-serif" font-size="13" font-weight="bold" lengthAdjust="spacing" textLength="7" x="791" y="337.3076">6</text><text fill="#000000" font-family="sans-serif" font-size="13" lengthAdjust="spacing" textLength="200" x="802" y="337.3076">Create CoAuthorResponse objects</text><polygon fill="#181818" points="795,369.8613,785,373.8613,795,377.8613,791,373.8613" style="stroke:#181818;stroke-width:1.0;"/><line style="stroke:#181818;stroke-width:1.0;stroke-dasharray:2.0,2.0;" x1="789" x2="1307" y1="373.8613" y2="373.8613"/><text fill="#000000" font-family="sans-serif" font-size="13" font-weight="bold" lengthAdjust="spacing" textLength="7" x="801" y="368.5986">7</text><text fill="#000000" font-family="sans-serif" font-size="13" lengthAdjust="spacing" textLength="149" x="812" y="368.5986">List&lt;CoAuthorResponse&gt;</text><path d="M705,388.8613 L778,388.8613 L778,398.1523 L768,408.1523 L705,408.1523 L705,388.8613 " fill="#EEEEEE" style="stroke:#000000;stroke-width:1.5;"/><rect fill="none" height="81.873" style="stroke:#000000;stroke-width:1.5;" width="867" x="705" y="388.8613"/><text fill="#000000" font-family="sans-serif" font-size="13" font-weight="bold" lengthAdjust="spacing" textLength="28" x="720" y="403.8896">loop</text><text fill="#000000" font-family="sans-serif" font-size="11" font-weight="bold" lengthAdjust="spacing" textLength="84" x="793" y="402.7314">[for each book]</text><polygon fill="#181818" points="1490,427.4434,1500,431.4434,1490,435.4434,1494,431.4434" style="stroke:#181818;stroke-width:1.0;"/><line style="stroke:#181818;stroke-width:1.0;" x1="784" x2="1496" y1="431.4434" y2="431.4434"/><text fill="#000000" font-family="sans-serif" font-size="13" font-weight="bold" lengthAdjust="spacing" textLength="7" x="791" y="426.1807">8</text><text fill="#000000" font-family="sans-serif" font-size="13" lengthAdjust="spacing" textLength="169" x="802" y="426.1807">Create BookResponse object</text><polygon fill="#181818" points="1319,458.7344,1309,462.7344,1319,466.7344,1315,462.7344" style="stroke:#181818;stroke-width:1.0;"/><line style="stroke:#181818;stroke-width:1.0;stroke-dasharray:2.0,2.0;" x1="1313" x2="1506" y1="462.7344" y2="462.7344"/><text fill="#000000" font-family="sans-serif" font-size="13" font-weight="bold" lengthAdjust="spacing" textLength="7" x="1325" y="457.4717">9</text><text fill="#000000" font-family="sans-serif" font-size="13" lengthAdjust="spacing" textLength="154" x="1336" y="457.4717">Add to CoAuthorResponse</text><polygon fill="#181818" points="538,497.0254,528,501.0254,538,505.0254,534,501.0254" style="stroke:#181818;stroke-width:1.0;"/><line style="stroke:#181818;stroke-width:1.0;stroke-dasharray:2.0,2.0;" x1="532" x2="778" y1="501.0254" y2="501.0254"/><text fill="#000000" font-family="sans-serif" font-size="13" font-weight="bold" lengthAdjust="spacing" textLength="14" x="544" y="495.7627">10</text><text fill="#000000" font-family="sans-serif" font-size="13" lengthAdjust="spacing" textLength="149" x="562" y="495.7627">List&lt;CoAuthorResponse&gt;</text><polygon fill="#181818" points="1099,528.3164,1109,532.3164,1099,536.3164,1103,532.3164" style="stroke:#181818;stroke-width:1.0;"/><line style="stroke:#181818;stroke-width:1.0;stroke-dasharray:2.0,2.0;" x1="527" x2="1105" y1="532.3164" y2="532.3164"/><text fill="#000000" font-family="sans-serif" font-size="13" font-weight="bold" lengthAdjust="spacing" textLength="14" x="534" y="527.0537">11</text><text fill="#000000" font-family="sans-serif" font-size="13" lengthAdjust="spacing" textLength="140" x="552" y="527.0537">create(200 OK, jsonObj)</text><rect fill="#E2E2F0" height="32.6211" rx="2.5" ry="2.5" style="stroke:#181818;stroke-width:0.5;" width="118" x="1111" y="509.0254"/><text fill="#000000" font-family="sans-serif" font-size="14" lengthAdjust="spacing" textLength="104" x="1118" y="531.1328">result:HttpResult</text><polygon fill="#181818" points="281,571.9375,271,575.9375,281,579.9375,277,575.9375" style="stroke:#181818;stroke-width:1.0;"/><line style="stroke:#181818;stroke-width:1.0;stroke-dasharray:2.0,2.0;" x1="275" x2="521" y1="575.9375" y2="575.9375"/><text fill="#000000" font-family="sans-serif" font-size="13" font-weight="bold" lengthAdjust="spacing" textLength="14" x="287" y="570.6748">12</text><text fill="#000000" font-family="sans-serif" font-size="13" lengthAdjust="spacing" textLength="32" x="305" y="570.6748">result</text><line style="stroke:#181818;stroke-width:1.0;" x1="270" x2="317" y1="602.2285" y2="602.2285"/><line style="stroke:#181818;stroke-width:1.0;" x1="317" x2="317" y1="602.2285" y2="615.2285"/><line style="stroke:#181818;stroke-width:1.0;" x1="276" x2="317" y1="615.2285" y2="615.2285"/><polygon fill="#181818" points="286,611.2285,276,615.2285,286,619.2285,282,615.2285" style="stroke:#181818;stroke-width:1.0;"/><text fill="#000000" font-family="sans-serif" font-size="13" font-weight="bold" lengthAdjust="spacing" textLength="14" x="282" y="596.9658">13</text><text fill="#000000" font-family="sans-serif" font-size="13" lengthAdjust="spacing" textLength="152" x="300" y="596.9658">setHttpResult(resp, result)</text><line style="stroke:#181818;stroke-width:1.0;stroke-dasharray:2.0,2.0;" x1="275" x2="317" y1="656.5195" y2="656.5195"/><line style="stroke:#181818;stroke-width:1.0;stroke-dasharray:2.0,2.0;" x1="317" x2="317" y1="656.5195" y2="669.5195"/><line style="stroke:#181818;stroke-width:1.0;stroke-dasharray:2.0,2.0;" x1="270" x2="317" y1="669.5195" y2="669.5195"/><polygon fill="#181818" points="280,665.5195,270,669.5195,280,673.5195,276,669.5195" style="stroke:#181818;stroke-width:1.0;"/><text fill="#000000" font-family="sans-serif" font-size="13" font-weight="bold" lengthAdjust="spacing" textLength="14" x="282" y="651.2568">14</text><text fill="#000000" font-family="sans-serif" font-size="13" lengthAdjust="spacing" textLength="4" x="300" y="651.2568">&#160;</text><polygon fill="#181818" points="66,691.8105,56,695.8105,66,699.8105,62,695.8105" style="stroke:#181818;stroke-width:1.0;"/><line style="stroke:#181818;stroke-width:1.0;stroke-dasharray:2.0,2.0;" x1="60" x2="264" y1="695.8105" y2="695.8105"/><text fill="#000000" font-family="sans-serif" font-size="13" font-weight="bold" lengthAdjust="spacing" textLength="14" x="72" y="690.5479">15</text><text fill="#000000" font-family="sans-serif" font-size="13" lengthAdjust="spacing" textLength="25" x="90" y="690.5479">resp</text><!--SRC=[ZPJRRjim38RlzHH4hfAYGOjT6aE1r1YMOiDQf7a1nQORfRPeI7IAOjYxJuVuM1VRdIX-f7vIb5XnYR3OMDYXpD700xn9pS04hvhUW8y86QrbmqSo5gW0gI5QRfLxlp9WqDQOiJeZ78XUxK8uXAJVaOn0EjYwgGveXAYbOPMfsf-pIBRx_LDQAjIy06cXDyVSqPrMeabsr31ken42djyjOpM6Dq5WIfeDbIsOiYddi6SqPvNXGrMNCM5lp-4xhCag9lCUQDbjZk5xruS9UhXiZK7NkwRaPCjSxy8oi74fHDV3GLz4luRrtQK12Np_jeURZA9AU_CxAlibA_mZDFbhEBlxRMbPiBDoKle5B5K8bfkY42BwVLxVhmHUaDCsvqRdlYoxx5ElXF1SqD7txN_21hYFRfkJGA5q_e_O5eRrzDoVol9N7t4dXaKFaIT36Tfu7JOCSJ_W7sIrGjnzrAGj9f0QzFSnTG0TJku9k0mVFFCYfvWJN1BLKBYNXJ8x1dq2O28epjL4p73p8iH5ThCpFShvHX7hsK8tUUw_WPdW73zFZJeNaovsi_HPtN6271Qd_kegWImKjlnoUmkFFwxXP4a_7awh7ctdE3wVmTYs3elSlwcb_w6kB_2getjykDK_hv2-5k8l]--></g></svg>