<?xml version="1.0" encoding="us-ascii" standalone="no"?><svg xmlns="http://www.w3.org/2000/svg" xmlns:xlink="http://www.w3.org/1999/xlink" contentStyleType="text/css" height="516px" preserveAspectRatio="none" style="width:1436px;height:516px;background:#FFFFFF;" version="1.1" viewBox="0 0 1436 516" width="1436px" zoomAndPan="magnify"><defs/><g><rect fill="#FFFFFF" height="420.8223" style="stroke:#181818;stroke-width:1.0;" width="10" x="45" y="48.6211"/><rect fill="#FFFFFF" height="388.5313" style="stroke:#181818;stroke-width:1.0;" width="10" x="242" y="71.9121"/><rect fill="#FFFFFF" height="42.291" style="stroke:#181818;stroke-width:1.0;" width="10" x="247" y="379.8613"/><rect fill="#FFFFFF" height="200.0762" style="stroke:#181818;stroke-width:1.0;" width="10" x="581" y="140.4941"/><rect fill="#FFFFFF" height="93.873" style="stroke:#181818;stroke-width:1.0;" width="10" x="920" y="171.7852"/><rect fill="#FFFFFF" height="31.291" style="stroke:#181818;stroke-width:1.0;" width="10" x="1259" y="203.0762"/><line style="stroke:#181818;stroke-width:0.5;stroke-dasharray:5.0,5.0;" x1="50" x2="50" y1="38.6211" y2="478.4434"/><line style="stroke:#181818;stroke-width:0.5;stroke-dasharray:5.0,5.0;" x1="246.5" x2="246.5" y1="38.6211" y2="478.4434"/><line style="stroke:#181818;stroke-width:0.5;stroke-dasharray:5.0,5.0;" x1="586" x2="586" y1="38.6211" y2="478.4434"/><line style="stroke:#181818;stroke-width:0.5;stroke-dasharray:5.0,5.0;" x1="925" x2="925" y1="38.6211" y2="478.4434"/><line style="stroke:#181818;stroke-width:0.5;stroke-dasharray:5.0,5.0;" x1="1264" x2="1264" y1="38.6211" y2="478.4434"/><line style="stroke:#181818;stroke-width:0.5;stroke-dasharray:5.0,5.0;" x1="1403" x2="1403" y1="305.4688" y2="478.4434"/><rect fill="#E2E2F0" height="32.6211" rx="2.5" ry="2.5" style="stroke:#181818;stroke-width:0.5;" width="90" x="5" y="5"/><text fill="#000000" font-family="sans-serif" font-size="14" lengthAdjust="spacing" textLength="76" x="12" y="27.1074">:HTTPClient</text><rect fill="#E2E2F0" height="32.6211" rx="2.5" ry="2.5" style="stroke:#181818;stroke-width:0.5;" width="90" x="5" y="477.4434"/><text fill="#000000" font-family="sans-serif" font-size="14" lengthAdjust="spacing" textLength="76" x="12" y="499.5508">:HTTPClient</text><rect fill="#E2E2F0" height="32.6211" rx="2.5" ry="2.5" style="stroke:#181818;stroke-width:0.5;" width="153" x="170.5" y="5"/><text fill="#000000" font-family="sans-serif" font-size="14" lengthAdjust="spacing" textLength="139" x="177.5" y="27.1074">handler:RouteHandler</text><rect fill="#E2E2F0" height="32.6211" rx="2.5" ry="2.5" style="stroke:#181818;stroke-width:0.5;" width="153" x="170.5" y="477.4434"/><text fill="#000000" font-family="sans-serif" font-size="14" lengthAdjust="spacing" textLength="139" x="177.5" y="499.5508">handler:RouteHandler</text><rect fill="#E2E2F0" height="32.6211" rx="2.5" ry="2.5" style="stroke:#181818;stroke-width:0.5;" width="118" x="527" y="5"/><text fill="#000000" font-family="sans-serif" font-size="14" lengthAdjust="spacing" textLength="104" x="534" y="27.1074">AuthorController</text><rect fill="#E2E2F0" height="32.6211" rx="2.5" ry="2.5" style="stroke:#181818;stroke-width:0.5;" width="118" x="527" y="477.4434"/><text fill="#000000" font-family="sans-serif" font-size="14" lengthAdjust="spacing" textLength="104" x="534" y="499.5508">AuthorController</text><rect fill="#E2E2F0" height="32.6211" rx="2.5" ry="2.5" style="stroke:#181818;stroke-width:0.5;" width="128" x="861" y="5"/><text fill="#000000" font-family="sans-serif" font-size="14" lengthAdjust="spacing" textLength="114" x="868" y="27.1074">AuthorServiceImpl</text><rect fill="#E2E2F0" height="32.6211" rx="2.5" ry="2.5" style="stroke:#181818;stroke-width:0.5;" width="128" x="861" y="477.4434"/><text fill="#000000" font-family="sans-serif" font-size="14" lengthAdjust="spacing" textLength="114" x="868" y="499.5508">AuthorServiceImpl</text><rect fill="#E2E2F0" height="32.6211" rx="2.5" ry="2.5" style="stroke:#181818;stroke-width:0.5;" width="204" x="1162" y="5"/><text fill="#000000" font-family="sans-serif" font-size="14" lengthAdjust="spacing" textLength="190" x="1169" y="27.1074">SpringDataLendingRepository</text><rect fill="#E2E2F0" height="32.6211" rx="2.5" ry="2.5" style="stroke:#181818;stroke-width:0.5;" width="204" x="1162" y="477.4434"/><text fill="#000000" font-family="sans-serif" font-size="14" lengthAdjust="spacing" textLength="190" x="1169" y="499.5508">SpringDataLendingRepository</text><rect fill="#E2E2F0" height="32.6211" rx="2.5" ry="2.5" style="stroke:#181818;stroke-width:0.5;" width="54" x="1376" y="477.4434"/><text fill="#000000" font-family="sans-serif" font-size="14" lengthAdjust="spacing" textLength="40" x="1383" y="499.5508">Result</text><rect fill="#FFFFFF" height="420.8223" style="stroke:#181818;stroke-width:1.0;" width="10" x="45" y="48.6211"/><rect fill="#FFFFFF" height="388.5313" style="stroke:#181818;stroke-width:1.0;" width="10" x="242" y="71.9121"/><rect fill="#FFFFFF" height="42.291" style="stroke:#181818;stroke-width:1.0;" width="10" x="247" y="379.8613"/><rect fill="#FFFFFF" height="200.0762" style="stroke:#181818;stroke-width:1.0;" width="10" x="581" y="140.4941"/><rect fill="#FFFFFF" height="93.873" style="stroke:#181818;stroke-width:1.0;" width="10" x="920" y="171.7852"/><rect fill="#FFFFFF" height="31.291" style="stroke:#181818;stroke-width:1.0;" width="10" x="1259" y="203.0762"/><polygon fill="#181818" points="230,67.9121,240,71.9121,230,75.9121,234,71.9121" style="stroke:#181818;stroke-width:1.0;"/><line style="stroke:#181818;stroke-width:1.0;" x1="55" x2="236" y1="71.9121" y2="71.9121"/><text fill="#000000" font-family="sans-serif" font-size="13" font-weight="bold" lengthAdjust="spacing" textLength="7" x="62" y="66.6494">1</text><text fill="#000000" font-family="sans-serif" font-size="13" lengthAdjust="spacing" textLength="157" x="73" y="66.6494">GET /top-readers-per-genre</text><path d="M174,84.9121 L174,111.9121 L319,111.9121 L319,94.9121 L309,84.9121 L174,84.9121 " fill="#FEFFDD" style="stroke:#181818;stroke-width:0.5;"/><path d="M309,84.9121 L309,94.9121 L319,94.9121 L309,84.9121 " fill="#FEFFDD" style="stroke:#181818;stroke-width:0.5;"/><text fill="#000000" font-family="sans-serif" font-size="13" lengthAdjust="spacing" textLength="124" x="180" y="103.9404">after doing some stuff</text><polygon fill="#181818" points="569,136.4941,579,140.4941,569,144.4941,573,140.4941" style="stroke:#181818;stroke-width:1.0;"/><line style="stroke:#181818;stroke-width:1.0;" x1="252" x2="575" y1="140.4941" y2="140.4941"/><text fill="#000000" font-family="sans-serif" font-size="13" font-weight="bold" lengthAdjust="spacing" textLength="7" x="259" y="135.2314">2</text><text fill="#000000" font-family="sans-serif" font-size="13" lengthAdjust="spacing" textLength="299" x="270" y="135.2314">getTopReadersPerGenre(genre, startDate, endDate)</text><polygon fill="#181818" points="908,167.7852,918,171.7852,908,175.7852,912,171.7852" style="stroke:#181818;stroke-width:1.0;"/><line style="stroke:#181818;stroke-width:1.0;" x1="591" x2="914" y1="171.7852" y2="171.7852"/><text fill="#000000" font-family="sans-serif" font-size="13" font-weight="bold" lengthAdjust="spacing" textLength="7" x="598" y="166.5225">3</text><text fill="#000000" font-family="sans-serif" font-size="13" lengthAdjust="spacing" textLength="299" x="609" y="166.5225">getTopReadersPerGenre(genre, startDate, endDate)</text><polygon fill="#181818" points="1247,199.0762,1257,203.0762,1247,207.0762,1251,203.0762" style="stroke:#181818;stroke-width:1.0;"/><line style="stroke:#181818;stroke-width:1.0;" x1="930" x2="1253" y1="203.0762" y2="203.0762"/><text fill="#000000" font-family="sans-serif" font-size="13" font-weight="bold" lengthAdjust="spacing" textLength="7" x="937" y="197.8135">4</text><text fill="#000000" font-family="sans-serif" font-size="13" lengthAdjust="spacing" textLength="299" x="948" y="197.8135">getTopReadersPerGenre(genre, startDate, endDate)</text><polygon fill="#181818" points="941,230.3672,931,234.3672,941,238.3672,937,234.3672" style="stroke:#181818;stroke-width:1.0;"/><line style="stroke:#181818;stroke-width:1.0;stroke-dasharray:2.0,2.0;" x1="935" x2="1263" y1="234.3672" y2="234.3672"/><text fill="#000000" font-family="sans-serif" font-size="13" font-weight="bold" lengthAdjust="spacing" textLength="7" x="947" y="229.1045">5</text><text fill="#000000" font-family="sans-serif" font-size="13" lengthAdjust="spacing" textLength="83" x="958" y="229.1045">List&lt;Object[]&gt;</text><polygon fill="#181818" points="602,261.6582,592,265.6582,602,269.6582,598,265.6582" style="stroke:#181818;stroke-width:1.0;"/><line style="stroke:#181818;stroke-width:1.0;stroke-dasharray:2.0,2.0;" x1="596" x2="924" y1="265.6582" y2="265.6582"/><text fill="#000000" font-family="sans-serif" font-size="13" font-weight="bold" lengthAdjust="spacing" textLength="7" x="608" y="260.3955">6</text><text fill="#000000" font-family="sans-serif" font-size="13" lengthAdjust="spacing" textLength="180" x="619" y="260.3955">List&lt;TopReaderPerGenreDTO&gt;</text><polygon fill="#181818" points="1364,292.9492,1374,296.9492,1364,300.9492,1368,296.9492" style="stroke:#181818;stroke-width:1.0;"/><line style="stroke:#181818;stroke-width:1.0;stroke-dasharray:2.0,2.0;" x1="591" x2="1370" y1="296.9492" y2="296.9492"/><text fill="#000000" font-family="sans-serif" font-size="13" font-weight="bold" lengthAdjust="spacing" textLength="7" x="598" y="291.6865">7</text><text fill="#000000" font-family="sans-serif" font-size="13" lengthAdjust="spacing" textLength="140" x="609" y="291.6865">create(200 OK, jsonObj)</text><rect fill="#E2E2F0" height="32.6211" rx="2.5" ry="2.5" style="stroke:#181818;stroke-width:0.5;" width="54" x="1376" y="273.6582"/><text fill="#000000" font-family="sans-serif" font-size="14" lengthAdjust="spacing" textLength="40" x="1383" y="295.7656">Result</text><polygon fill="#181818" points="263,336.5703,253,340.5703,263,344.5703,259,340.5703" style="stroke:#181818;stroke-width:1.0;"/><line style="stroke:#181818;stroke-width:1.0;stroke-dasharray:2.0,2.0;" x1="257" x2="585" y1="340.5703" y2="340.5703"/><text fill="#000000" font-family="sans-serif" font-size="13" font-weight="bold" lengthAdjust="spacing" textLength="7" x="269" y="335.3076">8</text><text fill="#000000" font-family="sans-serif" font-size="13" lengthAdjust="spacing" textLength="32" x="280" y="335.3076">result</text><line style="stroke:#181818;stroke-width:1.0;" x1="252" x2="299" y1="366.8613" y2="366.8613"/><line style="stroke:#181818;stroke-width:1.0;" x1="299" x2="299" y1="366.8613" y2="379.8613"/><line style="stroke:#181818;stroke-width:1.0;" x1="258" x2="299" y1="379.8613" y2="379.8613"/><polygon fill="#181818" points="268,375.8613,258,379.8613,268,383.8613,264,379.8613" style="stroke:#181818;stroke-width:1.0;"/><text fill="#000000" font-family="sans-serif" font-size="13" font-weight="bold" lengthAdjust="spacing" textLength="7" x="264" y="361.5986">9</text><text fill="#000000" font-family="sans-serif" font-size="13" lengthAdjust="spacing" textLength="152" x="275" y="361.5986">setHttpResult(resp, result)</text><line style="stroke:#181818;stroke-width:1.0;stroke-dasharray:2.0,2.0;" x1="257" x2="299" y1="421.1523" y2="421.1523"/><line style="stroke:#181818;stroke-width:1.0;stroke-dasharray:2.0,2.0;" x1="299" x2="299" y1="421.1523" y2="434.1523"/><line style="stroke:#181818;stroke-width:1.0;stroke-dasharray:2.0,2.0;" x1="252" x2="299" y1="434.1523" y2="434.1523"/><polygon fill="#181818" points="262,430.1523,252,434.1523,262,438.1523,258,434.1523" style="stroke:#181818;stroke-width:1.0;"/><text fill="#000000" font-family="sans-serif" font-size="13" font-weight="bold" lengthAdjust="spacing" textLength="14" x="264" y="415.8896">10</text><text fill="#000000" font-family="sans-serif" font-size="13" lengthAdjust="spacing" textLength="4" x="282" y="415.8896">&#160;</text><polygon fill="#181818" points="66,456.4434,56,460.4434,66,464.4434,62,460.4434" style="stroke:#181818;stroke-width:1.0;"/><line style="stroke:#181818;stroke-width:1.0;stroke-dasharray:2.0,2.0;" x1="60" x2="246" y1="460.4434" y2="460.4434"/><text fill="#000000" font-family="sans-serif" font-size="13" font-weight="bold" lengthAdjust="spacing" textLength="14" x="72" y="455.1807">11</text><text fill="#000000" font-family="sans-serif" font-size="13" lengthAdjust="spacing" textLength="25" x="90" y="455.1807">resp</text><!--SRC=[dP91Ry8m38Nl-HKHbm6Y0-rOJKWJJ30D2GIzJJk4ra1GcsIEYyI_dzDIIg_SxEPxptvMNqv4piVZiSkLeRB8NrDRZ3tybM1IY3AjZgWA8LH9rfJ57h0gLKhweWYaDK8uXQHJxTX0zk9bacnckGP3FQcyRDikTr8com7ZhIq9bdLJ2NPNJr1qu8-IJXPdrX3QdBc0pGZphcDDxG0lEeMlmkMr7VUXwR0xXzeSvuhK2ap6vHQSzPeiNeC6kUF8JSQ72AAjPJIzxHhBnMSYnsHTXA0oG1yvmEW81a4O6wvquQKRM1s8kypoMEbj0T9JUJY8-ZcuXcYnF08brcrhmmtW8jZrAzCHIpWDxyyb1mZ5G8YWgxQwHNx2ev46ct259oo2J4QTDLRQq_jwVuQKVdwd3qFkOIlYFgSPCq_Mqrig9hVWovo6mrYcV6Q2_jja8jVV8tdsrh3xe4MRKsCbUJXjy-21blpZrvPznjpe1W_kT8i_Vcf_WChU2V4F]--></g></svg>