<?xml version="1.0" encoding="us-ascii" standalone="no"?><svg xmlns="http://www.w3.org/2000/svg" xmlns:xlink="http://www.w3.org/1999/xlink" contentStyleType="text/css" height="784px" preserveAspectRatio="none" style="width:1634px;height:784px;background:#FFFFFF;" version="1.1" viewBox="0 0 1634 784" width="1634px" zoomAndPan="magnify"><defs/><g><rect fill="#FFFFFF" height="689.4805" style="stroke:#181818;stroke-width:1.0;" width="10" x="45" y="48.6211"/><rect fill="#FFFFFF" height="657.1895" style="stroke:#181818;stroke-width:1.0;" width="10" x="281" y="71.9121"/><rect fill="#FFFFFF" height="42.291" style="stroke:#181818;stroke-width:1.0;" width="10" x="286" y="648.5195"/><rect fill="#FFFFFF" height="468.7344" style="stroke:#181818;stroke-width:1.0;" width="10" x="495" y="140.4941"/><rect fill="#FFFFFF" height="137.4941" style="stroke:#181818;stroke-width:1.0;" width="10" x="641" y="171.7852"/><rect fill="#FFFFFF" height="193.7461" style="stroke:#181818;stroke-width:1.0;" width="10" x="826" y="340.5703"/><rect fill="#FFFFFF" height="131.1641" style="stroke:#181818;stroke-width:1.0;" width="10" x="1040" y="371.8613"/><rect fill="#FFFFFF" height="31.291" style="stroke:#181818;stroke-width:1.0;" width="10" x="1239.5" y="203.0762"/><rect fill="#FFFFFF" height="68.582" style="stroke:#181818;stroke-width:1.0;" width="10" x="1416.5" y="403.1523"/><line style="stroke:#181818;stroke-width:0.5;stroke-dasharray:5.0,5.0;" x1="50" x2="50" y1="38.6211" y2="747.1016"/><line style="stroke:#181818;stroke-width:0.5;stroke-dasharray:5.0,5.0;" x1="285.5" x2="285.5" y1="38.6211" y2="747.1016"/><line style="stroke:#181818;stroke-width:0.5;stroke-dasharray:5.0,5.0;" x1="500" x2="500" y1="38.6211" y2="747.1016"/><line style="stroke:#181818;stroke-width:0.5;stroke-dasharray:5.0,5.0;" x1="646" x2="646" y1="38.6211" y2="747.1016"/><line style="stroke:#181818;stroke-width:0.5;stroke-dasharray:5.0,5.0;" x1="831" x2="831" y1="274.1777" y2="747.1016"/><line style="stroke:#181818;stroke-width:0.5;stroke-dasharray:5.0,5.0;" x1="1045" x2="1045" y1="38.6211" y2="747.1016"/><line style="stroke:#181818;stroke-width:0.5;stroke-dasharray:5.0,5.0;" x1="1244" x2="1244" y1="38.6211" y2="747.1016"/><line style="stroke:#181818;stroke-width:0.5;stroke-dasharray:5.0,5.0;" x1="1421" x2="1421" y1="38.6211" y2="747.1016"/><line style="stroke:#181818;stroke-width:0.5;stroke-dasharray:5.0,5.0;" x1="1569" x2="1569" y1="574.127" y2="747.1016"/><rect fill="#E2E2F0" height="32.6211" rx="2.5" ry="2.5" style="stroke:#181818;stroke-width:0.5;" width="90" x="5" y="5"/><text fill="#000000" font-family="sans-serif" font-size="14" lengthAdjust="spacing" textLength="76" x="12" y="27.1074">:HTTPClient</text><rect fill="#E2E2F0" height="32.6211" rx="2.5" ry="2.5" style="stroke:#181818;stroke-width:0.5;" width="90" x="5" y="746.1016"/><text fill="#000000" font-family="sans-serif" font-size="14" lengthAdjust="spacing" textLength="76" x="12" y="768.209">:HTTPClient</text><rect fill="#E2E2F0" height="32.6211" rx="2.5" ry="2.5" style="stroke:#181818;stroke-width:0.5;" width="153" x="209.5" y="5"/><text fill="#000000" font-family="sans-serif" font-size="14" lengthAdjust="spacing" textLength="139" x="216.5" y="27.1074">handler:RouteHandler</text><rect fill="#E2E2F0" height="32.6211" rx="2.5" ry="2.5" style="stroke:#181818;stroke-width:0.5;" width="153" x="209.5" y="746.1016"/><text fill="#000000" font-family="sans-serif" font-size="14" lengthAdjust="spacing" textLength="139" x="216.5" y="768.209">handler:RouteHandler</text><rect fill="#E2E2F0" height="32.6211" rx="2.5" ry="2.5" style="stroke:#181818;stroke-width:0.5;" width="122" x="439" y="5"/><text fill="#000000" font-family="sans-serif" font-size="14" lengthAdjust="spacing" textLength="108" x="446" y="27.1074">:AuthorController</text><rect fill="#E2E2F0" height="32.6211" rx="2.5" ry="2.5" style="stroke:#181818;stroke-width:0.5;" width="122" x="439" y="746.1016"/><text fill="#000000" font-family="sans-serif" font-size="14" lengthAdjust="spacing" textLength="108" x="446" y="768.209">:AuthorController</text><rect fill="#E2E2F0" height="32.6211" rx="2.5" ry="2.5" style="stroke:#181818;stroke-width:0.5;" width="60" x="616" y="5"/><text fill="#000000" font-family="sans-serif" font-size="14" lengthAdjust="spacing" textLength="46" x="623" y="27.1074">:Author</text><rect fill="#E2E2F0" height="32.6211" rx="2.5" ry="2.5" style="stroke:#181818;stroke-width:0.5;" width="60" x="616" y="746.1016"/><text fill="#000000" font-family="sans-serif" font-size="14" lengthAdjust="spacing" textLength="46" x="623" y="768.209">:Author</text><rect fill="#E2E2F0" height="32.6211" rx="2.5" ry="2.5" style="stroke:#181818;stroke-width:0.5;" width="152" x="755" y="746.1016"/><text fill="#000000" font-family="sans-serif" font-size="14" lengthAdjust="spacing" textLength="138" x="762" y="768.209">service:AuthorService</text><rect fill="#E2E2F0" height="32.6211" rx="2.5" ry="2.5" style="stroke:#181818;stroke-width:0.5;" width="202" x="944" y="5"/><text fill="#000000" font-family="sans-serif" font-size="14" lengthAdjust="spacing" textLength="188" x="951" y="27.1074">serviceImpl:AuthorServiceImpl</text><rect fill="#E2E2F0" height="32.6211" rx="2.5" ry="2.5" style="stroke:#181818;stroke-width:0.5;" width="202" x="944" y="746.1016"/><text fill="#000000" font-family="sans-serif" font-size="14" lengthAdjust="spacing" textLength="188" x="951" y="768.209">serviceImpl:AuthorServiceImpl</text><rect fill="#E2E2F0" height="32.6211" rx="2.5" ry="2.5" style="stroke:#181818;stroke-width:0.5;" width="177" x="1156" y="5"/><text fill="#000000" font-family="sans-serif" font-size="14" lengthAdjust="spacing" textLength="163" x="1163" y="27.1074">factory:RepositoryFactory</text><rect fill="#E2E2F0" height="32.6211" rx="2.5" ry="2.5" style="stroke:#181818;stroke-width:0.5;" width="177" x="1156" y="746.1016"/><text fill="#000000" font-family="sans-serif" font-size="14" lengthAdjust="spacing" textLength="163" x="1163" y="768.209">factory:RepositoryFactory</text><rect fill="#E2E2F0" height="32.6211" rx="2.5" ry="2.5" style="stroke:#181818;stroke-width:0.5;" width="157" x="1343" y="5"/><text fill="#000000" font-family="sans-serif" font-size="14" lengthAdjust="spacing" textLength="143" x="1350" y="27.1074">repo:AuthorRepository</text><rect fill="#E2E2F0" height="32.6211" rx="2.5" ry="2.5" style="stroke:#181818;stroke-width:0.5;" width="157" x="1343" y="746.1016"/><text fill="#000000" font-family="sans-serif" font-size="14" lengthAdjust="spacing" textLength="143" x="1350" y="768.209">repo:AuthorRepository</text><rect fill="#E2E2F0" height="32.6211" rx="2.5" ry="2.5" style="stroke:#181818;stroke-width:0.5;" width="118" x="1510" y="746.1016"/><text fill="#000000" font-family="sans-serif" font-size="14" lengthAdjust="spacing" textLength="104" x="1517" y="768.209">result:HttpResult</text><rect fill="#FFFFFF" height="689.4805" style="stroke:#181818;stroke-width:1.0;" width="10" x="45" y="48.6211"/><rect fill="#FFFFFF" height="657.1895" style="stroke:#181818;stroke-width:1.0;" width="10" x="281" y="71.9121"/><rect fill="#FFFFFF" height="42.291" style="stroke:#181818;stroke-width:1.0;" width="10" x="286" y="648.5195"/><rect fill="#FFFFFF" height="468.7344" style="stroke:#181818;stroke-width:1.0;" width="10" x="495" y="140.4941"/><rect fill="#FFFFFF" height="137.4941" style="stroke:#181818;stroke-width:1.0;" width="10" x="641" y="171.7852"/><rect fill="#FFFFFF" height="193.7461" style="stroke:#181818;stroke-width:1.0;" width="10" x="826" y="340.5703"/><rect fill="#FFFFFF" height="131.1641" style="stroke:#181818;stroke-width:1.0;" width="10" x="1040" y="371.8613"/><rect fill="#FFFFFF" height="31.291" style="stroke:#181818;stroke-width:1.0;" width="10" x="1239.5" y="203.0762"/><rect fill="#FFFFFF" height="68.582" style="stroke:#181818;stroke-width:1.0;" width="10" x="1416.5" y="403.1523"/><polygon fill="#181818" points="269,67.9121,279,71.9121,269,75.9121,273,71.9121" style="stroke:#181818;stroke-width:1.0;"/><line style="stroke:#181818;stroke-width:1.0;" x1="55" x2="275" y1="71.9121" y2="71.9121"/><text fill="#000000" font-family="sans-serif" font-size="13" font-weight="bold" lengthAdjust="spacing" textLength="7" x="62" y="66.6494">1</text><text fill="#000000" font-family="sans-serif" font-size="13" lengthAdjust="spacing" textLength="196" x="73" y="66.6494">GET/author/search?name={name}</text><path d="M213,84.9121 L213,111.9121 L358,111.9121 L358,94.9121 L348,84.9121 L213,84.9121 " fill="#FEFFDD" style="stroke:#181818;stroke-width:0.5;"/><path d="M348,84.9121 L348,94.9121 L358,94.9121 L348,84.9121 " fill="#FEFFDD" style="stroke:#181818;stroke-width:0.5;"/><text fill="#000000" font-family="sans-serif" font-size="13" lengthAdjust="spacing" textLength="124" x="219" y="103.9404">after doing some stuff</text><polygon fill="#181818" points="483,136.4941,493,140.4941,483,144.4941,487,140.4941" style="stroke:#181818;stroke-width:1.0;"/><line style="stroke:#181818;stroke-width:1.0;" x1="291" x2="489" y1="140.4941" y2="140.4941"/><text fill="#000000" font-family="sans-serif" font-size="13" font-weight="bold" lengthAdjust="spacing" textLength="7" x="298" y="135.2314">2</text><text fill="#000000" font-family="sans-serif" font-size="13" lengthAdjust="spacing" textLength="174" x="309" y="135.2314">searchAuthorsByName(name)</text><polygon fill="#181818" points="629,167.7852,639,171.7852,629,175.7852,633,171.7852" style="stroke:#181818;stroke-width:1.0;"/><line style="stroke:#181818;stroke-width:1.0;" x1="505" x2="635" y1="171.7852" y2="171.7852"/><text fill="#000000" font-family="sans-serif" font-size="13" font-weight="bold" lengthAdjust="spacing" textLength="7" x="512" y="166.5225">3</text><text fill="#000000" font-family="sans-serif" font-size="13" lengthAdjust="spacing" textLength="106" x="523" y="166.5225">getAuthorService()</text><polygon fill="#181818" points="1227.5,199.0762,1237.5,203.0762,1227.5,207.0762,1231.5,203.0762" style="stroke:#181818;stroke-width:1.0;"/><line style="stroke:#181818;stroke-width:1.0;" x1="651" x2="1233.5" y1="203.0762" y2="203.0762"/><text fill="#000000" font-family="sans-serif" font-size="13" font-weight="bold" lengthAdjust="spacing" textLength="7" x="658" y="197.8135">4</text><text fill="#000000" font-family="sans-serif" font-size="13" lengthAdjust="spacing" textLength="126" x="669" y="197.8135">getAuthorRepository()</text><polygon fill="#181818" points="662,230.3672,652,234.3672,662,238.3672,658,234.3672" style="stroke:#181818;stroke-width:1.0;"/><line style="stroke:#181818;stroke-width:1.0;stroke-dasharray:2.0,2.0;" x1="656" x2="1243.5" y1="234.3672" y2="234.3672"/><text fill="#000000" font-family="sans-serif" font-size="13" font-weight="bold" lengthAdjust="spacing" textLength="7" x="668" y="229.1045">5</text><text fill="#000000" font-family="sans-serif" font-size="13" lengthAdjust="spacing" textLength="25" x="679" y="229.1045">repo</text><polygon fill="#181818" points="743,261.6582,753,265.6582,743,269.6582,747,265.6582" style="stroke:#181818;stroke-width:1.0;"/><line style="stroke:#181818;stroke-width:1.0;stroke-dasharray:2.0,2.0;" x1="651" x2="749" y1="265.6582" y2="265.6582"/><text fill="#000000" font-family="sans-serif" font-size="13" font-weight="bold" lengthAdjust="spacing" textLength="7" x="658" y="260.3955">6</text><text fill="#000000" font-family="sans-serif" font-size="13" lengthAdjust="spacing" textLength="69" x="669" y="260.3955">create(repo)</text><rect fill="#E2E2F0" height="32.6211" rx="2.5" ry="2.5" style="stroke:#181818;stroke-width:0.5;" width="152" x="755" y="242.3672"/><text fill="#000000" font-family="sans-serif" font-size="14" lengthAdjust="spacing" textLength="138" x="762" y="264.4746">service:AuthorService</text><polygon fill="#181818" points="516,305.2793,506,309.2793,516,313.2793,512,309.2793" style="stroke:#181818;stroke-width:1.0;"/><line style="stroke:#181818;stroke-width:1.0;stroke-dasharray:2.0,2.0;" x1="510" x2="645" y1="309.2793" y2="309.2793"/><text fill="#000000" font-family="sans-serif" font-size="13" font-weight="bold" lengthAdjust="spacing" textLength="7" x="522" y="304.0166">7</text><text fill="#000000" font-family="sans-serif" font-size="13" lengthAdjust="spacing" textLength="40" x="533" y="304.0166">service</text><polygon fill="#181818" points="814,336.5703,824,340.5703,814,344.5703,818,340.5703" style="stroke:#181818;stroke-width:1.0;"/><line style="stroke:#181818;stroke-width:1.0;" x1="505" x2="820" y1="340.5703" y2="340.5703"/><text fill="#000000" font-family="sans-serif" font-size="13" font-weight="bold" lengthAdjust="spacing" textLength="7" x="512" y="335.3076">8</text><text fill="#000000" font-family="sans-serif" font-size="13" lengthAdjust="spacing" textLength="174" x="523" y="335.3076">searchAuthorsByName(name)</text><polygon fill="#181818" points="1028,367.8613,1038,371.8613,1028,375.8613,1032,371.8613" style="stroke:#181818;stroke-width:1.0;"/><line style="stroke:#181818;stroke-width:1.0;" x1="836" x2="1034" y1="371.8613" y2="371.8613"/><text fill="#000000" font-family="sans-serif" font-size="13" font-weight="bold" lengthAdjust="spacing" textLength="7" x="843" y="366.5986">9</text><text fill="#000000" font-family="sans-serif" font-size="13" lengthAdjust="spacing" textLength="174" x="854" y="366.5986">searchAuthorsByName(name)</text><polygon fill="#181818" points="1404.5,399.1523,1414.5,403.1523,1404.5,407.1523,1408.5,403.1523" style="stroke:#181818;stroke-width:1.0;"/><line style="stroke:#181818;stroke-width:1.0;" x1="1050" x2="1410.5" y1="403.1523" y2="403.1523"/><text fill="#000000" font-family="sans-serif" font-size="13" font-weight="bold" lengthAdjust="spacing" textLength="14" x="1057" y="397.8896">10</text><text fill="#000000" font-family="sans-serif" font-size="13" lengthAdjust="spacing" textLength="182" x="1075" y="397.8896">findByNameStartingWith(name)</text><path d="M1337,416.1523 L1337,443.1523 L1505,443.1523 L1505,426.1523 L1495,416.1523 L1337,416.1523 " fill="#FEFFDD" style="stroke:#181818;stroke-width:0.5;"/><path d="M1495,416.1523 L1495,426.1523 L1505,426.1523 L1495,416.1523 " fill="#FEFFDD" style="stroke:#181818;stroke-width:0.5;"/><text fill="#000000" font-family="sans-serif" font-size="13" lengthAdjust="spacing" textLength="147" x="1343" y="435.1807">adds each author to a list</text><polygon fill="#181818" points="1061,467.7344,1051,471.7344,1061,475.7344,1057,471.7344" style="stroke:#181818;stroke-width:1.0;"/><line style="stroke:#181818;stroke-width:1.0;stroke-dasharray:2.0,2.0;" x1="1055" x2="1420.5" y1="471.7344" y2="471.7344"/><text fill="#000000" font-family="sans-serif" font-size="13" font-weight="bold" lengthAdjust="spacing" textLength="14" x="1067" y="466.4717">11</text><text fill="#000000" font-family="sans-serif" font-size="13" lengthAdjust="spacing" textLength="75" x="1085" y="466.4717">List&lt;Author&gt;</text><polygon fill="#181818" points="847,499.0254,837,503.0254,847,507.0254,843,503.0254" style="stroke:#181818;stroke-width:1.0;"/><line style="stroke:#181818;stroke-width:1.0;stroke-dasharray:2.0,2.0;" x1="841" x2="1044" y1="503.0254" y2="503.0254"/><text fill="#000000" font-family="sans-serif" font-size="13" font-weight="bold" lengthAdjust="spacing" textLength="14" x="853" y="497.7627">12</text><text fill="#000000" font-family="sans-serif" font-size="13" lengthAdjust="spacing" textLength="75" x="871" y="497.7627">List&lt;Author&gt;</text><polygon fill="#181818" points="516,530.3164,506,534.3164,516,538.3164,512,534.3164" style="stroke:#181818;stroke-width:1.0;"/><line style="stroke:#181818;stroke-width:1.0;stroke-dasharray:2.0,2.0;" x1="510" x2="830" y1="534.3164" y2="534.3164"/><text fill="#000000" font-family="sans-serif" font-size="13" font-weight="bold" lengthAdjust="spacing" textLength="14" x="522" y="529.0537">13</text><text fill="#000000" font-family="sans-serif" font-size="13" lengthAdjust="spacing" textLength="75" x="540" y="529.0537">List&lt;Author&gt;</text><polygon fill="#181818" points="1498,561.6074,1508,565.6074,1498,569.6074,1502,565.6074" style="stroke:#181818;stroke-width:1.0;"/><line style="stroke:#181818;stroke-width:1.0;stroke-dasharray:2.0,2.0;" x1="505" x2="1504" y1="565.6074" y2="565.6074"/><text fill="#000000" font-family="sans-serif" font-size="13" font-weight="bold" lengthAdjust="spacing" textLength="14" x="512" y="560.3447">14</text><text fill="#000000" font-family="sans-serif" font-size="13" lengthAdjust="spacing" textLength="117" x="530" y="560.3447">create(200, jsonObj)</text><rect fill="#E2E2F0" height="32.6211" rx="2.5" ry="2.5" style="stroke:#181818;stroke-width:0.5;" width="118" x="1510" y="542.3164"/><text fill="#000000" font-family="sans-serif" font-size="14" lengthAdjust="spacing" textLength="104" x="1517" y="564.4238">result:HttpResult</text><polygon fill="#181818" points="302,605.2285,292,609.2285,302,613.2285,298,609.2285" style="stroke:#181818;stroke-width:1.0;"/><line style="stroke:#181818;stroke-width:1.0;stroke-dasharray:2.0,2.0;" x1="296" x2="499" y1="609.2285" y2="609.2285"/><text fill="#000000" font-family="sans-serif" font-size="13" font-weight="bold" lengthAdjust="spacing" textLength="14" x="308" y="603.9658">15</text><text fill="#000000" font-family="sans-serif" font-size="13" lengthAdjust="spacing" textLength="32" x="326" y="603.9658">result</text><line style="stroke:#181818;stroke-width:1.0;" x1="291" x2="338" y1="635.5195" y2="635.5195"/><line style="stroke:#181818;stroke-width:1.0;" x1="338" x2="338" y1="635.5195" y2="648.5195"/><line style="stroke:#181818;stroke-width:1.0;" x1="297" x2="338" y1="648.5195" y2="648.5195"/><polygon fill="#181818" points="307,644.5195,297,648.5195,307,652.5195,303,648.5195" style="stroke:#181818;stroke-width:1.0;"/><text fill="#000000" font-family="sans-serif" font-size="13" font-weight="bold" lengthAdjust="spacing" textLength="14" x="303" y="630.2568">16</text><text fill="#000000" font-family="sans-serif" font-size="13" lengthAdjust="spacing" textLength="152" x="321" y="630.2568">setHttpResult(resp, result)</text><line style="stroke:#181818;stroke-width:1.0;stroke-dasharray:2.0,2.0;" x1="296" x2="338" y1="689.8105" y2="689.8105"/><line style="stroke:#181818;stroke-width:1.0;stroke-dasharray:2.0,2.0;" x1="338" x2="338" y1="689.8105" y2="702.8105"/><line style="stroke:#181818;stroke-width:1.0;stroke-dasharray:2.0,2.0;" x1="291" x2="338" y1="702.8105" y2="702.8105"/><polygon fill="#181818" points="301,698.8105,291,702.8105,301,706.8105,297,702.8105" style="stroke:#181818;stroke-width:1.0;"/><text fill="#000000" font-family="sans-serif" font-size="13" font-weight="bold" lengthAdjust="spacing" textLength="14" x="303" y="684.5479">17</text><text fill="#000000" font-family="sans-serif" font-size="13" lengthAdjust="spacing" textLength="4" x="321" y="684.5479">&#160;</text><polygon fill="#181818" points="66,725.1016,56,729.1016,66,733.1016,62,729.1016" style="stroke:#181818;stroke-width:1.0;"/><line style="stroke:#181818;stroke-width:1.0;stroke-dasharray:2.0,2.0;" x1="60" x2="285" y1="729.1016" y2="729.1016"/><text fill="#000000" font-family="sans-serif" font-size="13" font-weight="bold" lengthAdjust="spacing" textLength="14" x="72" y="723.8389">18</text><text fill="#000000" font-family="sans-serif" font-size="13" lengthAdjust="spacing" textLength="25" x="90" y="723.8389">resp</text><!--SRC=[XP9HZzCm3CVVyocYUxdrT6Cd7YCOEYPWI0XEsoIUSwsxvjGc9N4dJOZlJfoaQtgQuAMowvyT-s_VDeYz4wjLtqgDGzU-AKstSl1h05t2ibBoQ6N7c1pGo1BLII9meuElX-uPB6EzjAXArVi2_4Pi3uUdJQj0umsNZa_kd6kahbgmOcS6X6rqGiB-x12wLqKV1soCtHYDrhGZkK7RNkL2z0ciyutEuWxiIPMGi7tquglHlef_xVfsda9_yZJovwcr5ylOizX1RvmYytFy4zAIFK-n7atFJ5a19_SrwuOMnTOlRnVCn97fbpKkAXEVJJPVhfFAWd_vT5Z9yAPVkhHbyq7B3jx_fkyVfWrj-mJsmiiQlLSPfO_ScGwumw6kMGnJOLgAuB5M7CPzF7_trHPKic0K9owkH_0Zu4pQHS5YYA2a4y-mIHfFZl5bLf1al9HOhbFPkpl1ImjUb0K1HKPSMeuNC3QO4lyrIq8oEfpA_pC8eomQHl1QwIfIUwGbw-DFXKtAc5OGOLbLZeCi6nxNnj5moLlba14G1feryys7tiLUrlFtyo6lKPauit1KABHFzvP9-_RXuPw_U5r_FByK4pSUJxpQx5Z6W0ESJjaloFNt2Iukz8JdlwQh3kLxzXS0]--></g></svg>